<?xml version="1.0" encoding="utf-8"?>
<svg id="svg2" viewBox="198.123 150.258 555.271 196.457" version="1.1" xmlns="http://www.w3.org/2000/svg">
  <path id="path3208" style="fill: rgb(20, 84, 61);" d="M 404.937 483.83 C 404.702 483.39 404.632 482.517 404.764 481.675 C 405.503 476.973 405.699 475.348 405.993 471.468 C 406.354 466.708 406.782 462.199 407.611 454.403 C 407.914 451.559 408.145 448.689 408.126 448.026 C 408.106 447.362 408.324 446.198 408.609 445.44 C 408.895 444.681 409.185 442.82 409.253 441.303 C 409.322 439.786 409.548 437.226 409.757 435.615 C 410.539 429.569 410.843 424.776 411.166 413.379 C 411.349 406.932 411.684 400.029 411.91 398.038 C 412.509 392.756 412.491 392.043 411.756 391.898 C 411.391 391.826 410.512 392.35 409.621 393.171 C 407.987 394.677 407.669 394.792 404.263 395.109 C 401.631 395.354 401.447 395.446 400.709 396.887 C 399.89 398.487 396.35 400.201 394.453 399.916 C 393.105 399.714 393.028 399.755 392.29 401.069 C 391.868 401.818 390.641 403.11 389.562 403.94 L 387.6 405.45 L 382.996 405.394 C 377.899 405.332 376.859 404.995 376.515 403.291 C 376.411 402.771 376.098 401.558 375.82 400.593 C 375.143 398.239 375.184 397.229 375.988 396.502 C 376.665 395.889 377.024 395.889 380.491 396.502 C 381.426 396.667 381.916 396.547 382.645 395.973 C 383.165 395.564 383.589 395.01 383.589 394.743 C 383.589 394.475 382.596 393.628 381.382 392.861 C 379.158 391.457 378.637 390.839 378.961 389.992 C 379.212 389.34 381.355 388.384 382.567 388.384 C 383.928 388.384 383.898 387.651 382.469 385.968 C 379.367 382.313 377.509 373.843 377.81 364.724 C 377.959 360.208 378.046 359.691 379.001 357.656 C 380.127 355.257 381.674 353.22 382.369 353.22 C 382.611 353.22 383.62 352.575 384.61 351.787 C 386.33 350.417 386.4 350.298 386.171 349.115 C 385.697 346.663 385.597 339.622 386.009 337.706 C 386.233 336.663 386.995 334.569 387.701 333.052 C 389.235 329.757 392.03 326.933 394.382 326.303 C 395.177 326.089 396.185 325.775 396.62 325.605 C 398.017 325.058 401.938 325.262 404.455 326.013 C 405.778 326.407 407.612 326.906 408.53 327.122 C 410.015 327.469 410.45 327.812 412.454 330.214 C 414.15 332.247 414.888 332.89 415.438 332.811 C 416.115 332.715 416.161 332.529 416.063 330.294 C 416.005 328.966 416.13 324.212 416.341 319.729 L 416.724 311.576 L 415.882 309.559 C 414.556 306.384 414.421 304.394 415.325 301.348 L 416.095 298.754 L 414.957 295.907 C 413.918 293.313 413.818 292.741 413.825 289.441 C 413.836 283.434 414.206 280.925 415.195 280.146 C 416.278 279.295 416.898 279.549 417.393 281.048 C 417.85 282.434 420.246 284.353 421.325 284.198 C 421.967 284.107 422.049 283.772 422.257 280.422 C 422.382 278.4 422.642 275.918 422.835 274.906 C 423.028 273.894 423.365 270.816 423.584 268.067 C 423.804 265.317 424.203 261.02 424.471 258.516 C 424.74 256.013 424.96 253.116 424.96 252.079 C 424.96 249.318 426.267 241.986 427.109 240.03 C 427.681 238.702 427.751 238.218 427.438 237.776 C 427.218 237.465 426.629 236.514 426.128 235.66 C 425.626 234.807 424.945 233.715 424.614 233.234 C 423.774 232.012 423.11 227.712 423.386 225.277 C 423.511 224.169 423.894 222.445 424.236 221.446 C 424.578 220.447 424.969 217.968 425.103 215.938 C 425.316 212.745 425.25 211.897 424.621 209.654 C 423.774 206.635 424.012 205.667 425.601 205.667 C 427.385 205.667 428.713 207.959 429.066 211.647 C 429.24 213.47 429.372 213.784 430.001 213.873 C 430.944 214.008 431.178 213.407 431.522 209.977 C 431.674 208.46 432.027 206.753 432.307 206.185 C 432.587 205.616 433.072 203.333 433.385 201.113 C 433.698 198.892 434.18 196.208 434.456 195.149 C 434.732 194.09 434.957 192.587 434.957 191.809 C 434.957 190.372 435.613 186.545 436.523 182.671 C 436.832 181.357 437.026 178.751 437.026 175.915 C 437.026 170.706 437.033 170.722 434.238 169.693 C 432.078 168.897 429.658 167.315 428.88 166.192 C 428.525 165.679 427.442 164.37 426.474 163.283 C 425.262 161.924 424.637 160.886 424.471 159.958 C 424.337 159.216 424.06 158.128 423.854 157.541 C 423.34 156.074 423.74 154.704 424.755 154.449 C 426.09 154.114 427.538 155.099 428.005 156.658 C 428.679 158.907 431.704 161.136 433.479 160.69 C 434.391 160.461 434.504 159.56 433.797 158.161 C 433.538 157.649 433.227 156.687 433.107 156.024 C 432.987 155.36 432.267 153.809 431.507 152.576 C 428.8 148.187 427.622 142.603 427.58 133.959 C 427.531 124.073 428.629 119.849 432.464 115.174 C 435.601 111.349 436.823 110.304 439.929 108.786 C 442.57 107.496 443.079 107.365 445.364 107.393 C 449.694 107.444 454.228 107.22 454.507 106.94 C 454.654 106.793 454.746 105.643 454.711 104.386 C 454.641 101.875 455.5 97.693 456.787 94.27 C 457.242 93.061 457.954 90.599 458.37 88.798 C 459.196 85.217 460.654 81.368 462.26 78.53 C 463.237 76.802 463.262 76.664 462.738 75.865 C 462.435 75.401 461.761 74.799 461.241 74.527 C 460.194 73.978 458.572 72.327 457.397 70.611 C 456.074 68.681 455.499 68.584 453.463 69.948 C 451.093 71.537 449.992 71.771 449.097 70.876 C 448.082 69.861 448.129 67.254 449.178 66.378 C 449.605 66.022 450.885 64.927 452.023 63.945 C 455.167 61.231 456.446 60.772 460.246 60.989 C 461.98 61.088 463.787 61.219 464.26 61.28 C 464.909 61.363 465.207 61.18 465.467 60.537 C 466.654 57.609 467.737 56.083 469.966 54.199 C 472.179 52.33 476.262 50.105 478.373 49.618 C 479.904 49.265 480.809 48.504 480.809 47.569 C 480.809 47.087 481.174 46.198 481.619 45.595 C 482.065 44.991 482.945 43.567 483.576 42.429 C 484.207 41.291 485.324 39.465 486.059 38.371 C 486.794 37.276 487.616 35.754 487.887 34.989 C 488.157 34.223 489.1 32.52 489.982 31.205 C 490.865 29.89 491.932 27.826 492.354 26.619 C 493.396 23.637 495.22 21.011 497.513 19.193 C 498.565 18.359 499.426 17.565 499.426 17.43 C 499.426 17.295 500.085 16.738 500.891 16.194 C 501.697 15.649 502.899 14.788 503.563 14.281 C 505.455 12.833 508.543 12.137 512.159 12.344 C 515.56 12.537 515.491 12.563 519.749 9.569 C 522.503 7.631 526.944 5.527 529.764 4.824 C 530.996 4.517 532.481 3.975 533.063 3.62 C 534.668 2.643 537.41 2.469 541.14 3.11 C 546.345 4.003 548.323 4.793 551.183 7.118 C 553.948 9.366 553.437 9.25 557.596 8.577 C 559.331 8.297 562.121 9.458 563.732 11.131 C 564.502 11.931 565.671 12.81 566.33 13.085 C 568.227 13.878 569.754 16.094 569.754 18.054 C 569.754 19.568 570.651 20.14 573.209 20.26 C 575.236 20.355 575.453 20.438 575.555 21.152 C 575.624 21.641 575.268 22.426 574.616 23.221 C 572.225 26.139 570.197 28.225 568.989 29.009 C 568.283 29.467 567.46 30.317 567.159 30.899 C 566.811 31.573 566.065 32.19 565.1 32.604 C 563.741 33.186 563.534 33.434 563.053 35.055 C 562.304 37.577 561.724 38.324 559.889 39.136 C 556.086 40.818 555.231 39.659 555.552 33.254 C 555.639 31.508 555.41 31.199 553.567 30.578 C 551.625 29.924 548.716 27.727 547.346 25.881 C 545.738 23.713 545.569 23.286 545.23 20.537 C 545.078 19.305 544.855 17.64 544.735 16.837 C 544.615 16.034 544.682 14.903 544.884 14.324 C 545.197 13.426 545.147 13.167 544.544 12.565 C 542.39 10.41 536.982 10.279 531.659 12.253 C 530.233 12.782 526.371 15.415 526.14 16.016 C 526.036 16.286 526.272 16.849 526.664 17.266 C 527.055 17.682 527.656 19.016 527.998 20.229 L 528.62 22.433 L 532.208 22.433 C 536.287 22.433 537.795 22.938 541.039 25.388 C 542.981 26.854 544.658 29.583 545.116 32.025 C 545.247 32.726 545.659 33.686 546.03 34.158 C 546.638 34.931 546.885 34.998 548.491 34.829 C 550.526 34.615 551.946 35.167 552.095 36.232 C 552.149 36.615 551.514 37.818 550.643 38.981 C 549.25 40.842 548.946 41.067 547.617 41.222 C 546.161 41.392 546.137 41.416 546.034 42.833 C 545.977 43.624 545.744 44.412 545.517 44.584 C 544.535 45.327 541.83 46.049 540.026 46.049 C 538.192 46.049 538.015 46.124 537.135 47.278 C 535.924 48.866 533.983 49.841 532.033 49.841 C 530.956 49.841 530.103 50.099 529.236 50.688 C 527.393 51.938 524.336 53.023 522.142 53.204 C 520.462 53.343 520.024 53.241 518.781 52.419 C 516.907 51.178 516.858 50.045 518.597 48.121 C 520.025 46.54 519.961 45.896 518.305 45.199 C 516.482 44.433 515.292 42.952 515.346 41.518 C 515.371 40.839 515.036 39.548 514.6 38.649 C 513.897 37.196 513.833 36.695 514.027 34.172 C 514.198 31.95 514.51 30.757 515.461 28.701 C 516.129 27.254 516.971 25.913 517.332 25.719 C 519.183 24.729 519.64 23.04 518.31 22.108 C 517.03 21.212 515.928 21.454 514.249 23.001 C 513.396 23.787 512.119 24.854 511.412 25.372 C 508.939 27.182 497.34 39.609 495.492 42.428 C 494.497 43.945 493.424 45.399 493.107 45.659 C 492.79 45.92 492.531 46.421 492.531 46.773 C 492.531 47.455 492.54 47.458 496.634 48.296 C 500.723 49.133 502.389 50.226 504.507 53.46 C 505.5 54.977 506.577 56.412 506.9 56.649 C 507.223 56.886 508.413 57.08 509.545 57.08 C 511.099 57.08 511.951 57.284 513.023 57.912 C 513.804 58.37 515.059 58.851 515.812 58.983 C 517.789 59.327 519.565 60.604 520.954 62.679 C 521.622 63.676 522.575 65.066 523.07 65.767 C 523.882 66.914 523.97 67.343 523.954 70.076 C 523.932 73.88 524.508 78.638 525.16 80.042 C 525.777 81.369 527.162 82.189 527.948 81.694 C 528.252 81.502 528.708 80.733 528.961 79.986 C 529.894 77.23 532.058 76.367 534.28 77.866 L 535.452 78.655 L 535.482 82.434 C 535.511 86.11 535.482 86.263 534.381 88.121 C 533.433 89.72 532.914 90.191 531.191 91.015 C 529.273 91.932 528.92 91.987 526.034 91.822 C 524.33 91.725 522.783 91.742 522.597 91.859 C 522.411 91.976 521.914 92.807 521.493 93.705 C 520.919 94.932 520.22 95.678 518.686 96.702 C 515.396 98.899 513.231 98.888 507.4 96.648 C 505.593 95.954 505.502 95.951 503.607 96.545 C 502.54 96.879 501.005 97.538 500.197 98.009 C 498.881 98.776 498.43 98.851 495.887 98.726 C 494.234 98.644 492.543 98.347 491.841 98.014 C 489.27 96.795 485.773 94.367 485.04 93.293 C 483.48 91.004 483.629 88.411 485.377 87.429 C 486.195 86.97 486.417 86.966 487.096 87.393 C 487.854 87.87 490.885 89.051 493.786 89.999 C 495.014 90.4 495.316 90.394 495.941 89.957 C 497.011 89.207 496.852 88.664 494.947 86.56 C 493.965 85.476 492.46 83.141 491.443 81.126 L 489.66 77.593 L 489.63 73.973 C 489.602 70.529 489.671 70.161 491.063 66.41 C 492.604 62.254 493.395 61.124 495.53 60.028 C 498.419 58.544 498.66 57.867 496.76 56.576 C 495.856 55.961 495.01 55.7 493.916 55.697 C 493.059 55.695 491.505 55.463 490.462 55.182 C 487.731 54.445 487.191 54.777 484.401 58.911 C 483.096 60.843 481.547 63.004 480.958 63.713 C 480.369 64.422 479.59 65.586 479.228 66.299 C 478.604 67.525 477.814 68.884 474.839 73.853 C 474.141 75.019 473.569 76.125 473.569 76.31 C 473.569 76.495 472.871 77.909 472.018 79.452 C 471.165 80.994 470.466 82.476 470.466 82.744 C 470.466 83.012 469.902 84.29 469.213 85.583 C 466.894 89.937 466.56 90.684 465.778 93.279 C 465.35 94.701 464.53 97.239 463.956 98.919 C 463.382 100.599 462.654 103.158 462.339 104.607 C 462.023 106.056 461.463 107.741 461.094 108.352 C 460.294 109.678 460.469 110.092 462.426 111.51 C 464.22 112.809 466.167 116.053 468.038 120.859 C 470.13 126.233 470.025 126.088 472.19 126.593 C 473.233 126.836 474.862 127.043 475.81 127.053 C 479.607 127.094 482.898 129.067 485.029 132.58 C 485.431 133.244 486.267 134.359 486.885 135.059 C 487.545 135.806 488.097 136.874 488.221 137.645 C 488.674 140.453 488.703 140.51 489.693 140.504 C 490.904 140.497 491.251 140.254 492.141 138.786 C 493.049 137.288 493.056 136.7 492.186 134.994 C 491.329 133.315 491.329 133.092 492.186 132.236 C 493.553 130.868 494.769 131.294 497.478 134.091 C 498.833 135.49 500.459 137.37 501.09 138.269 C 502.16 139.793 502.219 140.022 501.973 141.671 C 501.828 142.644 501.743 144.074 501.784 144.847 C 501.837 145.848 501.644 146.526 501.114 147.2 C 500.011 148.602 499.856 150.87 500.762 152.336 C 501.165 152.987 501.495 153.812 501.496 154.169 C 501.497 154.526 501.754 155.283 502.066 155.852 C 502.394 156.447 502.684 157.91 502.75 159.299 C 502.813 160.627 502.905 162.238 502.955 162.88 C 503.038 163.961 502.942 164.084 501.666 164.53 C 500.908 164.795 499.577 165.711 498.708 166.567 C 496.175 169.062 492.509 169.649 488.468 168.207 C 486.734 167.588 486.382 167.776 485.465 169.809 C 485.065 170.695 484.278 171.557 483.257 172.226 C 481.084 173.649 479.576 175.081 478.925 176.341 C 478.198 177.747 476.865 177.872 475.346 176.678 C 474.666 176.143 473.939 176.02 471.455 176.02 C 468.447 176.02 468.379 176.001 467.064 174.813 C 465.583 173.475 464.794 173.303 464.303 174.21 C 464.123 174.542 462.916 175.354 461.619 176.016 C 459.372 177.162 459.093 177.219 455.642 177.222 C 452.252 177.226 451.935 177.166 450.649 176.278 C 449.223 175.294 447.59 175.037 447.161 175.731 C 446.837 176.255 446.017 181.671 446.001 183.386 C 445.985 185.155 445.038 190.109 444.17 192.962 C 442.997 196.821 443.918 197.376 446.928 194.626 C 449.538 192.241 451.24 191.122 454.263 189.806 C 456.831 188.688 456.888 188.68 462.582 188.658 C 468.912 188.633 470.479 188.935 474.55 190.961 C 477.762 192.56 481.113 196.53 481.146 198.773 C 481.15 199.058 481.605 200.221 482.158 201.359 C 483.878 204.902 484.721 208.509 484.929 213.217 C 485.076 216.534 485.234 217.548 485.635 217.749 C 485.919 217.891 487.192 218.163 488.462 218.354 C 489.732 218.545 491.206 218.934 491.737 219.219 C 492.268 219.503 493.764 220.286 495.061 220.959 C 496.359 221.631 498.155 222.849 499.054 223.664 C 499.952 224.48 501.218 225.554 501.866 226.052 C 502.666 226.666 503.627 228.125 504.855 230.586 C 506.802 234.491 506.961 235.234 506.121 236.516 C 504.852 238.453 506.223 239.712 508.384 238.595 C 510.359 237.573 510.802 236.874 510.802 234.777 C 510.802 232.54 511.93 229.582 512.901 229.274 C 513.768 228.999 514.201 229.295 516.276 231.577 C 519.04 234.616 519.516 236.322 518.686 240.213 C 518.225 242.369 516.932 244.411 514.324 247.098 C 512.492 248.987 512.436 249.1 512.709 250.373 C 513.393 253.562 512.666 257.198 511.052 258.662 C 510.63 259.045 509.121 259.707 507.699 260.134 C 505.425 260.816 504.698 260.88 501.666 260.66 C 495.074 260.182 495.592 260.086 494.569 261.974 C 493.322 264.272 492.859 264.663 488.738 266.894 C 486.747 267.971 484.469 269.297 483.677 269.839 C 481.388 271.406 479.431 270.936 479.428 268.819 C 479.426 267.382 478.257 265.755 477.033 265.486 C 476.446 265.357 475.543 264.906 475.026 264.484 C 473.832 263.509 470.979 261.862 470.483 261.862 C 470.275 261.862 469.294 262.423 468.303 263.109 L 466.501 264.356 L 463.399 264.166 C 459.174 263.908 458.298 263.539 457.035 261.488 C 456.462 260.556 455.812 259.794 455.591 259.794 C 455.189 259.794 449.436 254.148 449.436 253.753 C 449.436 253.027 450.271 252.259 451.262 252.073 C 451.897 251.954 452.94 251.47 453.579 250.999 C 455.336 249.702 456.788 249.858 460.05 251.692 C 461.859 252.71 463.224 253.244 464.015 253.244 C 465.66 253.244 465.973 252.367 464.607 251.588 C 464.043 251.266 463.434 250.581 463.253 250.065 C 462.996 249.33 462.579 249.04 461.329 248.726 C 458.868 248.106 458.629 247.504 459.052 242.981 L 459.403 239.216 L 461.66 235.818 C 463.723 232.71 463.916 232.264 463.916 230.602 C 463.916 228.959 464.009 228.736 464.883 228.284 C 465.415 228.009 466.029 227.392 466.247 226.914 C 466.514 226.328 467.091 225.923 468.013 225.674 C 469.045 225.396 469.686 224.893 470.612 223.631 C 471.806 222.005 472.353 221.658 475.004 220.846 C 476.536 220.376 476.834 219.738 476.143 218.402 C 475.467 217.095 475.009 214.635 474.632 210.293 C 474.272 206.147 473.378 203.975 470.91 201.245 C 469.391 199.565 469.043 199.365 466.533 198.73 C 464.046 198.1 463.669 198.084 462.224 198.54 C 461.353 198.816 460.076 199.14 459.386 199.26 C 458.697 199.381 457.456 199.992 456.628 200.619 C 455.801 201.245 454.186 202.255 453.039 202.863 C 451.892 203.47 449.897 204.92 448.606 206.085 C 446.452 208.03 446.051 208.628 443.699 213.398 C 441.179 218.508 440.128 221.487 440.128 223.515 C 440.128 224.08 439.887 225.221 439.592 226.051 C 439.064 227.538 438.281 232.69 437.713 238.419 C 437.553 240.031 437.26 242.964 437.061 244.937 C 436.863 246.91 436.466 249.237 436.179 250.108 C 435.52 252.112 434.027 263.301 432.553 277.285 C 432.084 281.732 432.434 282.275 434.819 280.802 C 435.451 280.411 436.934 279.713 438.114 279.25 C 440.958 278.136 445.474 278.066 447.885 279.099 C 448.801 279.492 450.26 279.789 451.275 279.789 C 453.894 279.789 456.079 280.767 458.34 282.949 C 459.423 283.995 460.965 285.265 461.767 285.771 C 462.569 286.277 463.574 287.231 464.001 287.89 C 464.841 289.186 465.73 289.409 466.871 288.61 C 468.908 287.183 473.396 286.701 479.947 287.204 C 482.879 287.43 483.6 287.609 484.773 288.408 C 485.532 288.925 486.485 289.452 486.893 289.579 C 488.435 290.061 490.467 291.889 491.309 293.55 C 492.301 295.508 492.901 295.799 494.989 295.331 C 495.817 295.146 497.894 294.889 499.605 294.76 C 502.65 294.531 502.74 294.546 503.841 295.472 C 506.056 297.336 507.115 300.809 506.545 304.346 C 506.287 305.951 506.313 306.462 506.667 306.68 C 507.389 307.127 508.022 306.693 508.759 305.25 C 509.588 303.625 509.684 302.106 509.066 300.398 C 508.673 299.312 508.678 298.979 509.099 298.192 C 509.758 296.961 511.294 296.328 512.669 296.723 C 513.97 297.096 514.555 297.842 515.591 300.452 C 516.342 302.343 516.37 302.657 516.013 305.309 C 515.703 307.613 515.418 308.442 514.49 309.738 C 513.862 310.616 512.845 312.342 512.231 313.574 L 511.114 315.815 L 511.824 316.391 C 512.215 316.708 512.696 317.021 512.893 317.087 C 513.409 317.259 513.887 319.619 513.896 322.047 C 513.903 323.829 513.779 324.259 513.06 324.934 C 512.596 325.37 512.119 326.17 512 326.712 C 511.881 327.254 510.826 328.689 509.655 329.9 C 507.928 331.687 507.267 332.141 506.148 332.306 C 505.389 332.418 504.177 332.611 503.455 332.735 C 502.403 332.915 501.99 332.819 501.386 332.254 C 500.435 331.363 498.9 330.77 498.221 331.031 C 497.555 331.286 497.565 331.663 498.27 332.738 C 498.664 333.34 498.728 333.715 498.478 333.964 C 497.802 334.641 496.891 334.12 496.581 332.88 C 496.382 332.086 495.668 331.124 494.49 330.064 C 492.968 328.694 492.759 328.361 493.082 327.824 C 493.579 326.996 495.208 326.856 498.278 327.377 C 500.729 327.794 500.765 327.789 502.369 326.805 C 503.26 326.259 504.518 325.309 505.165 324.692 C 505.813 324.076 506.493 323.572 506.676 323.572 C 506.859 323.572 507.009 323.388 507.009 323.163 C 507.009 322.938 507.32 322.423 507.701 322.019 C 508.774 320.876 508.312 318.241 506.783 316.786 C 505.12 315.203 505.271 314.533 507.613 313.106 C 509.58 311.908 511.851 309.314 512.555 307.463 C 513.064 306.123 512.684 304.956 511.738 304.956 C 511.118 304.956 510.745 305.425 509.866 307.311 C 508.861 309.468 508.596 309.759 506.72 310.759 C 504.197 312.104 502.3 312.227 501.872 311.075 C 501.539 310.179 501.694 309.636 502.658 308.313 C 503.269 307.476 503.302 307.22 502.931 306.196 C 502.604 305.291 502.601 304.691 502.917 303.508 C 503.457 301.492 503.103 300.279 501.511 298.687 C 499.266 296.442 497.559 297.285 498.567 300.142 C 499.671 303.269 498.714 307.307 496.184 310.199 C 493.832 312.887 494.09 314.512 496.993 315.293 C 497.896 315.537 498.618 315.54 499.241 315.302 C 502.36 314.117 504.599 315.991 502.149 317.735 C 501.252 318.374 501.113 318.656 501.282 319.502 C 501.462 320.4 501.355 320.562 500.293 321.006 C 499.638 321.28 498.64 321.504 498.076 321.504 C 497.272 321.504 496.728 321.877 495.565 323.227 C 494.749 324.175 493.83 324.951 493.524 324.951 C 492.735 324.951 491.156 326.271 490.789 327.237 C 490.535 327.904 490.231 328.054 489.133 328.054 C 487.629 328.054 486.927 328.651 487.025 329.846 C 487.061 330.282 487.073 330.833 487.052 331.07 C 487.005 331.603 485.831 331.631 484.881 331.122 C 484.311 330.817 483.981 330.885 483.185 331.474 C 482.642 331.875 481.819 332.348 481.357 332.524 C 480.868 332.709 480.469 333.176 480.404 333.637 C 480.301 334.36 480.109 334.434 478.278 334.456 C 476.569 334.477 476.081 334.334 475.042 333.508 C 474.369 332.973 473.747 332.536 473.66 332.536 C 473.573 332.536 473.052 332.857 472.5 333.249 C 471.29 334.111 470.74 335.054 471.021 335.786 C 471.251 336.385 472.715 336.527 473.051 335.983 C 473.571 335.142 474.47 335.731 475.297 337.453 C 475.945 338.8 476.512 339.437 477.538 339.968 C 478.294 340.359 479.132 341.134 479.401 341.692 C 480.011 342.958 480.753 343.542 481.767 343.557 C 482.796 343.571 483.086 342.73 482.557 341.267 C 481.969 339.64 482.544 338.941 484.24 339.218 C 485.234 339.381 485.57 339.277 486.037 338.66 C 486.471 338.089 486.98 337.899 488.106 337.891 C 489.528 337.88 489.594 337.834 489.489 336.937 C 489.399 336.16 489.581 335.899 490.528 335.447 C 491.159 335.146 492.025 334.368 492.451 333.718 C 493.351 332.345 494.188 332.221 495.195 333.311 C 496.413 334.63 497.016 336.537 496.781 338.33 C 496.37 341.476 495.41 342.429 489.772 345.29 C 487.232 346.579 486.543 346.779 484.601 346.793 C 480.403 346.822 478.03 346.071 476.986 344.381 C 475.465 341.92 473.171 341.54 471.604 343.489 C 470.665 344.658 470.308 344.833 468.093 345.213 C 463.126 346.065 458.472 345.433 454.942 343.428 C 453.232 342.457 450.504 339.917 450.161 338.977 C 449.778 337.924 450.337 336.115 451.242 335.481 C 452.381 334.684 454.557 334.834 456.158 335.82 C 457.994 336.95 458.491 336.899 460.139 335.41 C 462.135 333.607 461.955 332.695 459.324 331.298 C 456.538 329.819 452.883 325.2 452.883 323.16 C 452.883 322.863 452.472 321.554 451.969 320.252 C 451.172 318.189 451.047 317.329 450.998 313.574 C 450.966 311.204 450.824 308.862 450.681 308.37 C 450.479 307.671 450.657 307.127 451.497 305.881 C 452.089 305.004 452.826 303.546 453.134 302.639 C 453.443 301.733 454.211 300.112 454.841 299.037 C 455.471 297.962 455.986 296.72 455.986 296.278 C 455.986 295.131 452.79 291.372 450.872 290.261 C 448.366 288.811 445.174 288.593 441.679 289.634 C 440.162 290.085 438.006 290.71 436.888 291.022 C 433.858 291.867 432.233 293.546 429.939 298.207 C 427.644 302.866 426.842 306.74 427.132 311.76 C 427.248 313.767 427.139 315.934 426.839 317.621 C 426.576 319.093 426.356 321.21 426.349 322.327 C 426.343 323.443 426.183 325.692 425.994 327.325 C 425.806 328.959 425.504 332.079 425.324 334.259 C 425.136 336.545 424.683 339.173 424.255 340.465 C 423.507 342.724 423.152 346.552 422.699 357.27 C 422.522 361.475 422.581 362.13 423.451 365.544 C 425.067 371.89 426.797 374.94 428.779 374.94 C 429.905 374.94 430.13 374.445 430.13 371.964 C 430.13 370.276 430.003 369.949 428.923 368.837 C 426.665 366.511 427.801 364.721 431.348 365.015 C 432.818 365.137 433.47 365.386 434.233 366.117 C 435.703 367.525 436.933 370.046 437.193 372.182 C 437.424 374.083 437.086 375.239 435.491 378.006 C 434.473 379.773 435.964 380.321 438.404 379.077 C 440.604 377.954 444.816 378.287 446.651 379.729 C 447.14 380.113 448.315 380.881 449.263 381.435 C 451.156 382.542 454.786 386.218 455.711 387.965 C 456.352 389.175 457.183 389.373 458.247 388.568 C 458.615 388.29 459.172 388.057 459.485 388.051 C 459.798 388.045 460.864 387.494 461.856 386.827 C 464.465 385.072 465.963 384.799 471.658 385.045 C 476.541 385.256 476.568 385.262 479.803 386.772 C 481.588 387.606 483.824 388.582 484.772 388.942 C 486.225 389.494 486.713 389.93 487.875 391.719 C 488.699 392.987 489.671 394.027 490.288 394.302 C 491.336 394.769 491.538 395.098 494.066 400.454 C 495.02 402.476 495.287 403.474 495.287 405.012 C 495.287 406.336 495.556 407.589 496.107 408.834 C 497.075 411.023 497.933 411.524 498.826 410.422 C 499.501 409.588 499.396 408.862 498.351 407.133 C 497.56 405.826 497.522 404.652 498.237 403.631 C 498.976 402.576 499.651 402.671 500.297 403.921 C 500.598 404.501 501.028 404.916 501.254 404.842 C 501.892 404.632 501.942 403.302 501.344 402.448 C 500.419 401.128 500.639 400.451 501.994 400.451 C 503.965 400.451 504.762 401.061 506.239 403.702 C 507.8 406.493 508.383 408.264 508.386 410.221 C 508.388 411.36 508.146 411.778 506.664 413.207 C 505.711 414.125 504.94 415.18 504.94 415.565 C 504.94 415.949 504.475 416.594 503.906 416.999 C 502.543 417.969 502.601 418.542 504.165 419.536 C 507.333 421.549 508.216 424.034 507.327 428.436 C 506.585 432.113 506.26 432.904 504.708 434.808 C 502.089 438.024 499.946 439.717 498.466 439.74 C 497.591 439.754 493.953 438.009 492.357 436.81 C 490.736 435.593 485.73 433.436 485.092 433.681 C 484.652 433.85 484.575 434.154 484.753 435.016 C 485.415 438.22 485.4 438.718 484.645 438.718 C 484.25 438.718 483.461 438.434 482.89 438.088 C 481.554 437.275 479.912 437.497 479.197 438.588 C 478.342 439.892 477.153 439.671 476.656 438.115 C 475.985 436.016 475.497 435.931 474.689 437.77 C 473.926 439.506 472.706 438.817 472.706 436.65 L 472.706 435.443 L 469.948 435.409 C 466.755 435.369 466.215 435.618 466.704 436.904 C 467.008 437.704 466.872 437.96 465.338 439.462 C 464.4 440.38 463.456 441.132 463.24 441.132 C 463.023 441.132 462.619 440.589 462.342 439.925 C 461.753 438.517 461.6 438.498 458.316 439.408 C 455.002 440.326 454.277 440.282 452.593 439.063 C 451.01 437.916 450.205 437.764 449.902 438.553 C 449.594 439.358 451.033 441.145 453.323 442.801 C 455.1 444.086 455.568 444.272 456.637 444.115 C 462.271 443.289 462.736 443.413 462.359 445.641 C 462.172 446.748 462.243 446.962 462.861 447.158 C 463.897 447.487 465.859 446.743 466.668 445.714 C 467.489 444.67 467.556 443.588 466.857 442.663 C 466.169 441.753 466.205 441.255 467.018 440.442 C 468.015 439.445 469.668 439.575 471.465 440.793 C 472.3 441.358 473.357 441.821 473.815 441.821 C 474.898 441.821 475.981 442.411 475.981 443 C 475.981 443.257 475.75 443.91 475.466 444.453 C 474.806 445.72 474.812 446.463 475.489 447.14 C 476.789 448.44 477.98 447.432 478.311 444.751 C 478.553 442.797 478.622 442.677 479.564 442.569 C 480.796 442.429 481.228 443.022 480.971 444.498 C 480.806 445.445 480.898 445.669 481.554 445.912 C 482.735 446.348 483.577 445.978 484.339 444.688 C 484.718 444.045 485.466 443.293 486.002 443.016 C 486.702 442.654 487.179 441.955 487.701 440.529 C 488.712 437.764 489.559 436.707 490.36 437.21 C 491.431 437.882 491.174 440.874 489.815 443.545 C 489.187 444.777 488.349 446.137 487.951 446.567 C 486.786 447.825 484.415 449.052 482.694 449.288 C 481.6 449.438 480.66 449.871 479.713 450.663 C 477.741 452.31 476.064 452.269 473.741 450.514 C 472.792 449.798 471.181 448.854 470.16 448.417 L 468.302 447.622 L 467.32 448.348 C 465.726 449.527 464.646 449.789 462.398 449.541 C 460.53 449.335 460.154 449.157 459.031 447.951 C 457.98 446.824 457.654 446.653 457.108 446.945 C 455.969 447.555 453.108 447.769 451.584 447.359 C 450.09 446.956 449.091 445.731 449.091 444.3 C 449.091 443.937 448.679 443.038 448.174 442.3 C 446.039 439.177 446.139 436.456 448.417 435.662 C 450.165 435.053 450.878 435.181 452.899 436.469 C 454.919 437.755 456.753 438.035 457.86 437.226 C 458.735 436.586 458.081 435.447 456.547 434.941 C 455.905 434.729 455.09 434.231 454.735 433.834 C 454.38 433.438 453.469 432.72 452.711 432.239 C 450.137 430.608 447.005 427.281 445.827 424.928 C 443.502 420.282 443.147 418.717 443.13 413.034 C 443.109 406.265 443.606 403.502 445.51 399.801 C 447.166 396.583 448.389 395.1 449.646 394.784 C 450.792 394.497 450.674 393.754 449.349 392.914 C 448.733 392.523 447.645 391.703 446.932 391.092 C 445.452 389.824 443.255 389.386 438.58 389.426 C 436.338 389.445 435.57 389.6 434.442 390.261 C 432.361 391.481 427.048 397.208 425.411 399.997 C 423.505 403.245 423.103 404.775 423.635 406.763 C 423.997 408.118 423.938 408.752 423.147 412.048 C 422.552 414.527 422.173 417.307 422.026 420.274 C 421.904 422.739 421.606 426.54 421.365 428.721 C 421.123 430.901 420.928 433.228 420.93 433.892 C 420.932 434.556 420.754 435.934 420.533 436.956 C 420.312 437.977 420.131 439.528 420.13 440.403 C 420.129 441.278 419.973 442.552 419.783 443.235 C 419.47 444.362 419.116 447.675 418.055 459.403 C 417.858 461.584 417.546 464.418 417.363 465.701 C 417.179 466.985 417.029 468.769 417.028 469.666 C 417.027 470.563 416.804 472.671 416.531 474.349 C 416.259 476.028 416.12 478.122 416.222 479.003 C 416.387 480.418 416.302 480.705 415.494 481.459 C 414.635 482.259 414.522 482.28 413.649 481.792 C 412.192 480.978 412.201 479.684 413.758 465.436 C 414.027 462.971 414.572 457.852 414.968 454.059 C 415.364 450.267 415.836 446.233 416.017 445.096 C 416.197 443.958 416.508 441.398 416.708 439.407 C 417.1 435.485 417.46 432.264 418.019 427.686 C 418.215 426.075 418.623 422.506 418.924 419.757 C 419.225 417.008 419.56 414.06 419.668 413.207 C 419.776 412.354 419.976 409.406 420.112 406.657 C 420.3 402.868 420.521 401.303 421.022 400.194 C 421.386 399.389 423.662 396.575 426.081 393.94 C 429.993 389.678 430.793 388.983 433.321 387.646 L 436.163 386.144 L 439.732 386.214 C 445.888 386.334 449.133 387.874 451.024 391.574 C 451.653 392.805 452.056 393.211 452.648 393.211 C 454.611 393.211 454.87 390.95 453.096 389.298 C 449.35 385.811 445.433 383.356 441.746 382.185 C 439.28 381.402 433.606 382.741 431.371 384.634 C 430.613 385.275 429.598 386.048 429.114 386.351 C 428.035 387.028 422.95 392.092 422.098 393.339 C 421.348 394.437 420.299 394.511 419.76 393.505 C 419.092 392.256 419.938 390.288 422.051 388.175 C 423.081 387.144 423.924 386.155 423.924 385.976 C 423.924 385.412 422.758 385.051 421.684 385.282 C 421.115 385.404 419.792 385.436 418.743 385.352 C 416.53 385.176 416.283 385.373 415.694 387.787 C 415.371 389.11 415.386 389.613 415.768 390.372 C 416.144 391.118 416.185 392.213 415.965 395.609 C 415.812 397.971 415.585 400.506 415.461 401.244 C 415.335 401.989 415.418 403.239 415.648 404.06 C 415.983 405.257 415.954 406.377 415.497 409.975 C 415.186 412.416 414.941 415.267 414.952 416.309 C 414.962 417.352 414.9 419.059 414.814 420.102 C 414.727 421.145 414.424 424.79 414.141 428.203 C 413.857 431.616 413.71 435.805 413.814 437.511 C 413.961 439.937 413.875 440.953 413.418 442.166 C 411.866 446.29 411.494 448.276 411.214 453.921 C 411.058 457.068 410.834 459.798 410.716 459.989 C 410.385 460.524 409.628 469.661 409.719 472.015 C 409.773 473.405 409.522 475.09 408.974 477.014 C 408.52 478.61 407.954 480.769 407.717 481.812 C 407.48 482.854 407.132 483.902 406.944 484.139 C 406.414 484.807 405.374 484.648 404.937 483.83 Z M 472.19 443.372 C 472.19 442.408 471.355 442.184 471.019 443.058 C 470.757 443.74 471.041 444.234 471.693 444.234 C 471.993 444.234 472.19 443.893 472.19 443.372 Z M 500.075 435.463 C 501.309 434.825 502.99 432.628 502.741 431.979 C 502.636 431.703 502.118 431.476 501.59 431.473 C 500.247 431.465 499.69 431.019 499.826 430.06 C 499.965 429.075 501.17 428.777 501.824 429.566 C 502.861 430.814 503.698 429.833 502.711 428.528 C 502.433 428.16 502.2 427.412 502.194 426.867 C 502.184 425.949 502.259 425.891 503.213 426.082 C 504.686 426.377 505.286 426.038 505.286 424.914 C 505.286 423.647 504.218 423.266 502.967 424.086 C 502.088 424.661 502.04 424.655 501.408 423.874 C 500.858 423.194 500.653 423.133 500.095 423.481 C 499.065 424.124 498.467 423.974 497.976 422.95 C 497.453 421.858 496.418 421.518 496.105 422.335 C 495.986 422.644 496.162 423.5 496.495 424.238 C 497.259 425.934 497.003 426.652 495.635 426.652 C 494.746 426.652 494.55 426.809 494.379 427.662 C 494.075 429.184 492.787 430.242 491.6 429.946 C 489.011 429.301 488.469 429.318 488.235 430.052 C 487.673 431.823 489.971 433.35 492.647 432.984 C 494.068 432.789 494.229 432.847 494.8 433.763 C 495.984 435.662 496.387 435.96 497.772 435.96 C 498.51 435.96 499.547 435.736 500.075 435.463 Z M 497.534 433.675 C 496.48 432.621 497.514 430.723 498.861 431.24 C 499.675 431.553 499.603 433.427 498.759 433.879 C 498.254 434.149 497.959 434.1 497.534 433.675 Z M 482.952 434.727 C 483.467 433.597 482.954 432.685 481.806 432.685 C 481.156 432.685 480.957 432.893 480.869 433.662 C 480.714 435.019 481.01 435.615 481.84 435.615 C 482.266 435.615 482.709 435.262 482.952 434.727 Z M 466.637 433.119 C 466.795 432.694 466.803 431.929 466.657 431.419 C 466.358 430.377 466.675 429.854 468.166 428.929 C 468.702 428.597 469.457 427.787 469.845 427.131 C 470.601 425.849 471.523 425.259 474.145 424.38 C 476.024 423.75 477.18 422.885 476.736 422.441 C 476.573 422.278 474.429 422.109 471.972 422.066 L 467.503 421.987 L 465.046 420.527 C 462.332 418.915 462.191 418.886 459.945 419.486 C 457.986 420.01 458.032 420.608 460.124 421.81 C 462.154 422.976 464.088 426.478 463.749 428.376 C 463.141 431.789 463.147 431.978 463.908 432.943 C 464.845 434.132 466.23 434.221 466.637 433.119 Z M 461.158 429.765 C 461.158 428.061 459.495 424.748 458.062 423.596 C 456.318 422.194 455.368 420.117 455.087 417.091 C 454.831 414.345 455.15 413.551 456.506 413.551 C 457.458 413.551 457.779 414.522 457.338 416.063 C 456.664 418.412 457.413 419.429 458.849 418.117 C 460.161 416.918 461.92 416.223 463.759 416.179 C 465.353 416.141 465.681 416.269 466.958 417.421 C 468.434 418.753 468.697 418.853 471.845 419.28 C 475.401 419.761 477.081 419.621 479.122 418.671 C 480.78 417.899 481.216 417.483 482.188 415.747 C 482.81 414.634 484.057 412.948 484.958 412 C 487.036 409.814 487.229 409.158 486.314 407.402 C 485.757 406.334 485.672 405.854 485.947 405.339 C 486.521 404.267 487.214 404.221 488.943 405.14 C 490.763 406.107 491.946 406.111 492.129 405.149 C 492.343 404.026 491.12 401.901 489.729 400.98 C 488.997 400.496 487.985 399.441 487.48 398.637 C 485.017 394.713 482.986 393.074 476.672 389.912 C 474.871 389.01 467.343 388.03 465.173 388.414 C 463.276 388.751 461.013 390.423 460.877 391.589 C 460.733 392.826 461.565 393.129 463.098 392.398 C 465.709 391.153 469.891 392.164 468.868 393.793 C 468.552 394.296 468.097 394.4 466.541 394.328 C 464.843 394.25 464.606 394.318 464.606 394.889 C 464.606 395.247 464.839 395.733 465.123 395.969 C 465.874 396.592 465.765 397.947 464.928 398.395 C 463.979 398.902 462.626 398.036 462.342 396.74 C 461.926 394.838 461.963 394.864 459.865 395.036 C 456.515 395.309 452.734 396.456 450.927 397.745 C 446.824 400.672 444.942 408.875 446.842 415.545 C 447.096 416.439 447.406 418.051 447.531 419.127 C 447.771 421.21 449.052 423.374 451.996 426.676 C 452.769 427.543 453.672 428.59 454.002 429.003 C 454.85 430.064 455.82 429.956 456.322 428.745 C 456.552 428.189 456.954 427.653 457.216 427.553 C 457.92 427.282 458.746 428.284 458.746 429.409 C 458.746 429.951 458.989 430.638 459.287 430.936 C 460.08 431.729 461.159 431.055 461.159 429.765 L 461.158 429.765 Z M 453.123 424.657 C 451.543 422.911 451.093 419.251 451.893 414.657 C 452.306 412.282 453.172 411.006 454.121 411.37 C 454.761 411.615 454.679 413.556 453.88 417.086 C 453.285 419.713 453.819 421.949 455.359 423.275 C 456.272 424.062 456.372 424.291 455.999 424.74 C 455.402 425.46 453.808 425.414 453.123 424.657 Z M 448.354 413.638 C 448.148 413.116 447.957 411.243 447.932 409.474 C 447.892 406.713 447.975 406.193 448.522 405.792 C 449.222 405.279 449.977 405.425 450.245 406.126 C 450.34 406.373 450.329 408.378 450.221 410.581 C 450.043 414.198 449.961 414.586 449.377 414.586 C 448.992 414.586 448.578 414.202 448.354 413.638 Z M 458.4 401.486 C 457.523 400.609 457.528 399.945 458.418 399.055 C 459.972 397.501 462.779 399.886 461.308 401.511 C 460.531 402.369 459.273 402.359 458.4 401.486 Z M 485.44 429.199 C 486.216 428.901 488.45 424.31 488.325 423.272 C 488.165 421.952 487.317 421.602 485.472 422.095 C 484.608 422.326 483.209 422.515 482.363 422.515 C 480.57 422.515 479.951 423.182 479.579 425.511 C 479.375 426.786 479.456 427.054 480.269 427.808 C 481.513 428.961 484.187 429.68 485.44 429.199 Z M 487.667 418.239 C 489.567 416.551 490.897 416.099 492.343 416.649 C 493.541 417.105 494.47 416.839 494.696 415.976 C 494.79 415.615 494.663 414.342 494.414 413.147 C 493.874 410.561 492.809 409.415 490.947 409.415 C 489.855 409.415 489.689 409.553 489.086 410.958 C 488.722 411.807 487.492 413.503 486.352 414.728 C 485.213 415.954 484.18 417.353 484.059 417.839 C 483.461 420.221 485.216 420.415 487.666 418.239 L 487.667 418.239 Z M 500.618 416.399 C 501.099 415.88 501.493 415.172 501.493 414.826 C 501.493 414.48 502.269 413.441 503.217 412.518 C 504.82 410.956 504.941 410.721 504.941 409.158 C 504.941 407.274 504.341 406.176 503.414 406.361 C 502.725 406.498 501.183 410.109 500.903 412.239 C 500.762 413.307 500.574 413.548 499.736 413.732 C 498.112 414.088 497.157 415.973 498.115 416.93 C 498.784 417.6 499.681 417.41 500.617 416.399 L 500.618 416.399 Z M 387.998 402.159 C 388.424 401.89 388.773 401.379 388.773 401.024 C 388.773 400.355 388.53 400.352 385.929 400.993 C 385.121 401.192 384.981 401.119 384.981 400.5 C 384.981 399.945 385.489 399.54 387.136 398.781 C 390.345 397.301 390.842 396.699 390.842 394.284 C 390.842 391.597 391.68 390.459 393.658 390.459 C 394.42 390.459 395.499 390.727 396.054 391.055 C 397.426 391.865 398.111 391.373 398.6 389.227 C 399.04 387.3 399.674 385.977 400.158 385.977 C 400.338 385.977 400.878 385.356 401.356 384.598 C 402.369 382.994 403.506 382.791 405.388 383.877 C 406.015 384.239 407.412 384.714 408.493 384.932 C 411.06 385.451 411.717 385.108 412.019 383.092 C 412.157 382.17 412.757 380.838 413.536 379.722 L 414.824 377.875 L 417.336 377.773 L 419.849 377.672 L 420.38 376.4 C 420.672 375.701 421.204 374.756 421.562 374.301 C 422.332 373.323 422.404 371.922 421.734 370.966 C 421.127 370.099 420.255 367.214 419.634 364.018 C 418.621 358.81 417.862 356.913 416.098 355.185 C 415.195 354.302 413.428 352.559 412.171 351.312 C 409.977 349.136 409.824 349.049 408.379 349.153 C 406.33 349.3 406.325 350.246 408.365 351.616 C 411.648 353.821 415.065 359.397 415.477 363.223 C 415.883 366.988 416.254 367.918 418.086 369.749 C 419.813 371.476 420.016 372.304 418.791 372.624 C 417.922 372.852 416.343 372.099 415.251 370.936 C 414.053 369.66 413.354 367.957 412.756 364.855 C 411.783 359.813 409.187 355.498 405.513 352.817 C 404.197 351.857 402.723 350.947 402.238 350.795 C 401.753 350.643 400.505 350.197 399.465 349.804 C 396.963 348.857 396.72 348.885 395.072 350.296 C 393.829 351.359 393.464 351.492 391.994 351.416 C 390.418 351.334 390.296 351.391 389.756 352.471 C 389.442 353.098 388.619 354.107 387.928 354.711 C 386.918 355.595 386.572 356.238 386.17 357.983 C 385.896 359.177 385.438 360.605 385.153 361.155 C 384.51 362.399 384.499 365.783 385.129 368.567 C 386.193 373.269 387.354 377.12 387.791 377.397 C 388.526 377.862 388.938 377.559 389.046 376.469 C 389.272 374.189 390.188 372.992 391.362 373.442 C 392.132 373.738 392.3 374.89 391.919 377.255 C 391.662 378.852 391.696 379.856 392.06 381.378 C 392.7 384.057 392.684 385.449 392.006 386.012 C 391.519 386.416 391.306 386.311 390.368 385.212 C 389.775 384.516 388.825 383.84 388.256 383.709 C 386.78 383.369 386.329 382.878 384.844 379.99 C 383.754 377.873 383.471 376.887 383.227 374.373 C 383.064 372.697 382.75 370.334 382.529 369.123 C 382.007 366.262 382.328 361.595 383.242 358.765 C 383.74 357.223 383.848 356.437 383.598 356.187 C 382.945 355.534 382.081 356.484 381.243 358.775 C 380.479 360.867 380.447 361.29 380.635 366.843 C 380.889 374.326 381.208 376.663 382.401 379.809 C 383.622 383.028 386.129 386.973 387.527 387.879 C 388.903 388.769 389.345 390.407 388.782 392.527 C 388.111 395.058 384.297 398.245 380.671 399.306 C 378.949 399.81 379.148 401.756 381.004 402.562 C 382.057 403.02 387.095 402.73 387.997 402.16 L 387.998 402.159 Z M 390.495 388.215 C 390.113 387.756 390.128 387.577 390.586 387.119 C 391.325 386.38 392.3 386.791 392.159 387.782 C 392.024 388.726 391.115 388.963 390.495 388.215 Z M 394.648 382.556 C 394.453 382.191 394.123 381.1 393.915 380.13 C 393.595 378.637 393.624 378.234 394.107 377.497 C 394.486 376.918 394.93 376.663 395.431 376.734 C 396.104 376.83 396.216 377.132 396.472 379.537 C 396.629 381.019 396.673 382.454 396.569 382.726 C 396.294 383.44 395.063 383.331 394.648 382.556 Z M 399.805 381.233 C 398.42 380.8 397.934 378.214 398.963 376.746 C 400.127 375.084 401.878 376.383 401.868 378.9 C 401.861 380.817 401.128 381.645 399.805 381.233 Z M 408.235 373.762 C 407.547 372.711 408.03 371.61 409.322 371.285 C 410.031 371.107 410.162 370.912 410.002 370.274 C 409.698 369.064 410.113 368.395 411.165 368.395 C 413.193 368.395 413.887 370.832 411.994 371.307 C 411.251 371.493 411.136 371.68 411.285 372.458 C 411.542 373.803 410.989 374.6 409.799 374.6 C 409.105 374.6 408.611 374.335 408.235 373.762 Z M 396.893 396.644 C 397.698 395.754 397.228 394.818 395.895 394.659 C 395.188 394.574 394.891 394.756 394.564 395.472 C 394.2 396.271 394.231 396.458 394.799 396.874 C 395.692 397.527 396.138 397.478 396.893 396.644 Z M 386.002 392.207 C 386.483 391.308 386.114 390.496 385.111 390.244 C 383.594 389.864 382.721 391.252 383.799 392.33 C 384.538 393.069 385.572 393.011 386.002 392.207 Z M 404.487 392.336 C 408.601 391.382 411.174 389.666 410.627 388.242 C 410.389 387.622 410.216 387.585 408.032 387.685 C 407.11 387.727 405.987 387.527 405.377 387.212 C 403.654 386.321 402.722 386.498 402.086 387.839 C 401.78 388.484 401.529 389.265 401.529 389.575 C 401.529 389.884 401.28 390.519 400.974 390.985 C 400.313 391.995 400.555 392.872 401.497 392.872 C 401.871 392.872 403.216 392.63 404.487 392.336 Z M 426.292 382.185 C 427.869 382.185 428.467 381.62 428.54 380.064 C 428.582 379.165 428.373 378.809 427.421 378.158 C 425.879 377.105 424.292 377.123 423.123 378.207 C 421.483 379.726 421.126 381.441 422.22 382.535 C 422.866 383.181 422.988 383.193 423.927 382.708 C 424.483 382.42 425.547 382.185 426.292 382.185 Z M 433.936 374.945 C 434.641 373.627 433.292 372.279 432.281 373.29 C 431.835 373.736 431.722 375.03 432.097 375.405 C 432.562 375.869 433.577 375.615 433.936 374.945 Z M 419.956 352.795 C 420.029 352.558 420.172 350.462 420.273 348.138 L 420.457 343.913 L 419.29 343.425 C 418.596 343.135 417.886 342.473 417.539 341.79 C 415.133 337.069 408.557 330.855 404.412 329.386 C 402.728 328.79 401.917 328.706 399.549 328.884 C 395.43 329.193 394.306 329.76 391.494 332.952 C 390.169 334.455 388.959 336.025 388.805 336.44 C 388.348 337.668 388.055 341.981 388.392 342.502 C 388.915 343.309 389.758 342.651 389.979 341.264 C 390.46 338.249 390.964 337.043 392.461 335.332 C 393.315 334.356 394.442 333.336 394.964 333.066 C 395.487 332.795 397.578 332.405 399.611 332.198 L 403.308 331.822 L 405.607 333.105 C 410.909 336.064 414.283 340.748 416.014 347.558 C 416.584 349.8 417.285 351.992 417.572 352.43 C 418.135 353.288 419.728 353.532 419.956 352.794 L 419.956 352.795 Z M 412.142 346.328 C 412.206 345.764 411.766 344.817 410.861 343.573 C 410.102 342.53 408.802 340.744 407.972 339.604 C 406.268 337.263 402.982 334.991 400.895 334.711 C 398.708 334.418 396.905 335.137 395.302 336.944 C 393.426 339.056 392.911 340.329 392.911 342.85 C 392.911 345.169 393.337 346.596 394.119 346.896 C 394.41 347.008 395.422 346.766 396.368 346.36 C 397.894 345.703 398.504 345.642 401.791 345.815 C 405.349 346.003 408.322 346.437 410.148 347.036 C 411.47 347.469 412.035 347.269 412.142 346.328 Z M 389.616 346.707 C 389.914 346.225 389.448 345.297 388.909 345.297 C 388.645 345.297 388.429 345.581 388.429 345.929 C 388.429 346.91 389.184 347.405 389.616 346.707 Z M 488.53 343.225 C 491.783 341.75 491.546 340.809 487.802 340.332 L 485.992 340.102 L 485.992 341.148 C 485.992 341.723 485.867 342.194 485.713 342.194 C 485.56 342.194 485.139 342.41 484.778 342.674 C 484.221 343.081 484.191 343.237 484.582 343.708 C 485.232 344.491 485.924 344.406 488.53 343.225 Z M 467.299 342.523 C 469.338 342.086 471.168 340.553 471.168 339.283 C 471.168 338.592 470.996 338.402 470.372 338.402 C 469.934 338.402 469.275 338.629 468.907 338.908 C 467.407 340.042 466.159 339.057 466.559 337.055 C 466.829 335.704 465.946 334.265 464.845 334.265 C 464.211 334.265 463.898 334.644 463.261 336.18 C 462.187 338.772 461.415 339.226 458.445 339.014 C 455.71 338.818 454.783 339.143 455.303 340.114 C 455.726 340.904 460.321 342.467 462.721 342.637 C 463.67 342.704 464.709 342.787 465.032 342.821 C 465.354 342.855 466.374 342.721 467.299 342.523 Z M 493.514 339.84 C 493.597 339.277 493.447 339.091 492.911 339.091 C 492.449 339.091 492.197 339.314 492.197 339.723 C 492.197 341.034 493.324 341.134 493.514 339.84 Z M 420.7 340.206 C 421.487 339.686 422.213 337.691 422.213 336.053 C 422.213 335.121 422.356 333.601 422.531 332.674 C 422.706 331.748 423.024 328.507 423.238 325.474 C 423.453 322.44 423.784 319.027 423.975 317.889 C 424.755 313.231 424.763 313.45 423.77 312.27 C 423.117 311.494 422.544 311.167 421.838 311.167 C 421.286 311.167 420.818 311.283 420.797 311.425 C 420.777 311.567 420.706 313.718 420.64 316.203 C 420.574 318.689 420.359 321.714 420.163 322.926 C 419.966 324.138 419.803 326.137 419.8 327.37 C 419.798 328.602 419.477 330.929 419.088 332.541 C 418.231 336.09 418.183 336.981 418.772 338.464 C 419.525 340.36 419.923 340.72 420.7 340.206 Z M 493.232 337.023 C 493.232 336.64 493.002 336.333 492.715 336.333 C 492.19 336.333 492.008 337.063 492.428 337.482 C 492.865 337.92 493.232 337.71 493.232 337.023 Z M 469.59 334.158 C 470.063 333.408 469.456 332.369 468.545 332.369 C 467.759 332.369 467.467 333.716 468.09 334.468 C 468.588 335.067 469.081 334.966 469.59 334.158 Z M 506.821 329.229 C 507.526 328.958 507.529 327.506 506.824 327.236 C 506.068 326.945 504.953 327.615 504.953 328.359 C 504.953 329.392 505.605 329.696 506.821 329.229 Z M 461.659 328.54 C 462.63 328.167 462.241 326.989 460.526 325.113 C 459.469 323.957 458.501 322.407 457.911 320.928 C 456.852 318.274 456.179 317.372 455.256 317.372 C 454.296 317.372 454.443 318.944 455.696 322.086 C 457.518 326.654 457.972 327.36 459.553 328.078 C 461.262 328.854 460.994 328.795 461.659 328.539 L 461.659 328.54 Z M 474.387 325.01 C 477.125 322.413 481.511 319.424 483.924 318.51 C 484.967 318.114 486.32 317.587 486.93 317.337 C 487.891 316.945 488.275 316.968 489.781 317.51 C 491.173 318.01 491.623 318.051 492.032 317.712 C 492.798 317.076 492.652 316.422 491.595 315.759 C 491.073 315.432 490.061 314.714 489.346 314.164 C 487.903 313.055 487.111 313.038 483.579 314.04 C 481.389 314.66 478.028 314.876 476.468 314.496 C 475.111 314.165 474.445 314.765 474.155 316.581 C 474.006 317.512 473.525 318.312 472.536 319.276 C 469.987 321.759 468.989 325.391 470.556 326.488 C 470.977 326.784 471.533 327.025 471.792 327.025 C 472.051 327.025 473.219 326.118 474.387 325.01 Z M 488.446 324.997 C 489.53 323.913 489.785 323.41 489.785 322.352 C 489.785 319.897 487.981 318.995 486.692 320.805 C 486.292 321.366 485.199 322.242 484.262 322.752 C 482.318 323.81 481.857 324.695 482.74 325.671 C 483.194 326.173 483.802 326.336 485.224 326.336 C 486.952 326.336 487.218 326.225 488.446 324.997 Z M 466.342 323.331 C 466.509 320.919 466.564 320.794 468.136 319.194 C 470.082 317.215 470.824 315.573 470.824 313.246 C 470.824 310.948 471.6 310.132 473.787 310.132 C 474.83 310.132 475.71 310.373 476.361 310.837 C 477.914 311.943 480.461 312.096 482.525 311.208 C 485.338 309.998 487.209 309.885 488.925 310.823 C 491.642 312.307 492.341 311.012 490.161 308.534 C 489.419 307.692 487.837 305.067 486.646 302.702 C 484.003 297.457 480.807 293.617 477.808 292.086 C 476.122 291.225 475.657 291.134 474.011 291.339 C 472.366 291.545 472.051 291.483 471.448 290.835 C 471.003 290.357 470.437 290.134 469.844 290.203 C 468.985 290.302 468.933 290.41 469.008 291.912 C 469.095 293.664 468.556 294.216 467.374 293.583 C 466.012 292.854 465.548 293.136 465.741 294.575 C 465.979 296.35 465.697 296.698 464.102 296.598 C 462.83 296.519 462.743 296.579 462.397 297.779 C 461.889 299.541 461.652 299.675 460.314 298.955 C 458.103 297.764 457.435 298.91 458.924 301.341 C 460.358 303.682 460.579 304.209 460.365 304.767 C 460.069 305.538 458.3 305.444 457.551 304.616 C 456.805 303.791 455.467 303.71 455.175 304.472 C 454.351 306.618 455.63 313.64 457.137 315.253 C 458.092 316.275 458.874 317.684 460.03 320.468 C 461.012 322.834 464.031 325.917 465.308 325.858 C 466.127 325.82 466.178 325.694 466.342 323.331 Z M 511.452 323.617 C 512.15 323.175 511.78 322.042 510.896 321.916 C 509.97 321.784 509.515 322.669 510.129 323.41 C 510.617 323.997 510.806 324.027 511.452 323.617 Z M 494.182 308.297 C 494.382 308.056 494.735 306.831 494.967 305.574 C 495.381 303.325 495.372 303.262 494.369 301.487 C 493.701 300.304 492.882 299.421 491.99 298.922 C 490.88 298.3 490.59 297.919 490.417 296.851 C 490.3 296.131 489.989 295.414 489.726 295.258 C 488.797 294.704 487.409 293.721 485.511 292.274 C 483.643 290.849 481.836 290.341 481.837 291.24 C 481.837 291.477 483.077 292.804 484.592 294.191 C 486.107 295.577 487.756 297.438 488.256 298.328 C 488.756 299.217 489.689 300.824 490.331 301.898 C 490.972 302.973 491.647 304.645 491.83 305.614 C 492.374 308.478 493.225 309.45 494.182 308.297 Z M 421.504 307.02 C 421.913 306.761 422.033 305.768 422.082 302.213 L 422.143 297.733 L 420.845 295.046 C 420.131 293.569 419.269 291.507 418.929 290.464 C 418.589 289.421 418.158 288.374 417.97 288.137 C 417.448 287.478 416.687 287.623 416.385 288.441 C 415.984 289.524 416.896 293.799 417.797 295.062 C 418.495 296.04 418.593 296.671 418.747 301.186 C 418.924 306.355 419.199 307.363 420.427 307.352 C 420.736 307.349 421.22 307.2 421.504 307.02 Z M 426.952 297.979 C 427.18 297.752 427.366 296.953 427.366 296.205 C 427.366 294.958 427.604 294.609 430.21 292.03 C 433.286 288.987 434.118 288.544 440.868 286.367 C 444.063 285.336 444.328 285.305 447.312 285.614 C 449.024 285.791 450.782 286.125 451.22 286.356 C 453.534 287.577 456.155 289.671 457.211 291.14 C 458.609 293.087 459.586 293.477 460.807 292.577 C 462.541 291.299 462.044 290.242 458.756 288.218 C 457.704 287.57 456.336 286.512 455.717 285.866 C 454.462 284.557 451.251 283.224 449.352 283.224 C 448.684 283.224 447.459 282.977 446.63 282.675 C 445.8 282.373 444.19 282.001 443.053 281.849 C 441.269 281.611 440.747 281.681 439.26 282.357 C 438.312 282.789 437.149 283.259 436.675 283.403 C 436.201 283.546 434.091 284.487 431.986 285.493 C 428.697 287.064 427.908 287.611 426.383 289.371 C 424.646 291.376 424.609 291.466 424.61 293.613 C 424.614 297.547 425.582 299.35 426.953 297.979 L 426.952 297.979 Z M 428.235 284.251 C 429.44 283.018 429.586 282.685 429.56 281.235 C 429.506 278.277 430.158 270.369 430.817 265.987 C 431.75 259.784 432.483 254.405 432.72 252.025 C 432.834 250.887 433.137 249.026 433.395 247.888 C 433.652 246.75 433.882 244.346 433.906 242.544 C 433.954 238.84 434.663 232.083 435.461 227.72 C 435.756 226.109 436.152 223.722 436.341 222.416 C 436.53 221.11 437.071 219.275 437.542 218.337 C 438.013 217.399 438.398 216.198 438.398 215.669 C 438.398 213.745 438.864 212.467 439.954 211.4 C 440.565 210.801 441.388 209.673 441.782 208.895 C 442.176 208.116 443.942 206.122 445.706 204.464 C 447.47 202.805 449.022 201.16 449.155 200.809 C 449.424 200.098 451.405 198.753 453.426 197.909 C 454.153 197.605 455.036 197.096 455.387 196.778 C 455.87 196.341 457.265 196.098 461.088 195.785 C 465.73 195.404 466.358 195.423 468.65 196.014 C 471.623 196.781 471.831 196.89 473.013 198.307 C 474.274 199.817 476.941 205.548 477.334 207.593 C 477.513 208.519 477.981 210.362 478.376 211.689 C 478.77 213.017 479.261 214.723 479.466 215.482 C 480.079 217.744 480.416 218.412 480.943 218.412 C 481.684 218.412 482.526 217.434 482.524 216.577 C 482.519 215.028 481.166 208.165 480.473 206.173 C 480.077 205.036 479.351 202.864 478.859 201.347 C 477.659 197.643 477.187 196.802 475.943 196.159 C 475.363 195.859 474.205 195.092 473.371 194.455 C 472.379 193.698 471.165 193.162 469.864 192.906 C 468.77 192.69 467.289 192.291 466.574 192.018 C 465.74 191.699 463.97 191.522 461.631 191.522 C 458.225 191.522 457.811 191.6 455.264 192.719 C 452.803 193.801 446.661 197.541 444.128 199.499 C 443.582 199.922 442.627 201.053 442.006 202.014 C 441.385 202.974 440.228 204.381 439.434 205.139 C 437.923 206.583 435.232 211.466 434.779 213.585 C 434.637 214.249 434.249 215.335 433.915 215.999 C 433.582 216.662 433.14 218.369 432.933 219.791 C 432.726 221.213 432.233 223.85 431.838 225.652 C 430.96 229.662 430.336 233.804 430.437 234.96 C 430.683 237.765 430.396 242.363 429.806 245.092 C 429.433 246.819 428.956 249.939 428.747 252.024 C 428.537 254.11 428.225 256.825 428.053 258.058 C 427.584 261.411 426.636 272.244 426.476 276.077 C 426.398 277.929 426.092 280.622 425.794 282.062 C 425.497 283.503 425.336 284.896 425.437 285.159 C 425.766 286.018 426.855 285.664 428.235 284.251 Z M 485.23 265.338 C 485.734 264.982 486.844 264.308 487.697 263.841 C 488.849 263.211 489.713 262.29 491.054 260.267 C 494.257 255.432 493.712 255.879 496.081 256.147 C 497.229 256.277 498.566 256.581 499.052 256.824 C 499.538 257.066 500.901 257.463 502.082 257.707 C 504.173 258.137 504.278 258.123 506.163 257.169 C 508.604 255.934 509.071 255.258 509.071 252.96 C 509.071 250.218 508.722 249.784 506.516 249.784 C 504.511 249.784 503.698 249.239 504.051 248.129 C 504.28 247.406 505.612 246.681 506.711 246.681 C 507.975 246.681 511.64 245.604 512.257 245.051 C 513.48 243.953 515.622 239.526 515.622 238.095 C 515.622 236.177 514.988 234.902 514.097 235.03 C 513.532 235.111 513.338 235.474 513.149 236.802 C 512.896 238.577 512.198 239.623 511.013 239.999 C 510.009 240.317 507.772 241.783 506.236 243.127 C 504.421 244.715 503.613 244.828 501.547 243.781 C 500.587 243.295 499.559 242.989 499.265 243.102 C 498.558 243.373 498.579 243.473 499.591 244.676 C 500.65 245.935 500.684 246.908 499.703 247.952 C 498.821 248.89 497.425 248.985 495.923 248.208 C 495.346 247.91 494.656 247.75 494.388 247.852 C 493.685 248.122 493.792 249.233 494.592 249.956 C 495.776 251.027 495.345 252.542 493.857 252.542 C 493.673 252.542 492.995 251.966 492.351 251.263 C 491.394 250.218 491.139 250.087 490.963 250.546 C 490.844 250.856 490.925 251.441 491.142 251.847 C 491.944 253.347 490.097 254.205 488.904 252.887 C 488.047 251.94 487.414 252.023 486.921 253.145 C 486.371 254.397 486.041 254.599 484.535 254.605 C 483.681 254.609 482.934 254.329 482.244 253.749 C 481.681 253.274 481.132 252.887 481.024 252.887 C 480.917 252.887 480.662 253.507 480.457 254.266 C 480.003 255.954 479.005 256.135 478.246 254.667 C 477.821 253.846 477.571 253.714 476.686 253.844 C 475.718 253.986 475.631 253.917 475.633 253.012 C 475.634 252.469 475.944 251.559 476.32 250.991 C 477.167 249.713 477.204 248.553 476.41 248.248 C 475.668 247.964 474.597 249.175 474.597 250.297 C 474.597 251.423 473.791 251.957 472.518 251.678 C 471.537 251.462 471.242 251.638 469.089 253.716 L 466.734 255.989 L 464.029 255.984 C 461.193 255.979 460.826 255.85 458.369 253.991 C 456.444 252.535 455.118 252.57 455.118 254.076 C 455.118 254.888 455.431 255.314 456.67 256.194 C 457.523 256.799 458.842 257.926 459.6 258.698 C 461.376 260.504 463.452 261.267 465.404 260.83 C 466.282 260.633 467.039 260.2 467.352 259.714 C 467.634 259.278 468.333 258.472 468.904 257.924 C 471.399 255.532 472.46 255.505 473.347 257.809 C 473.921 259.3 475.694 260.692 479.337 262.512 C 480.206 262.946 481.155 263.802 481.668 264.616 C 482.661 266.188 483.727 266.405 485.231 265.339 L 485.23 265.338 Z M 480.295 259.673 C 479.859 259.009 479.806 258.629 480.078 258.122 C 480.365 257.586 480.911 257.418 482.774 257.292 C 485.352 257.117 485.836 257.203 486.095 257.879 C 486.35 258.544 485.979 259.706 485.445 259.91 C 485.192 260.008 484.06 260.192 482.928 260.32 C 480.983 260.54 480.839 260.504 480.295 259.673 Z M 487.421 258.334 C 487.193 258.106 487.007 257.66 487.007 257.342 C 487.007 255.855 489.499 255.499 489.706 256.956 C 489.912 258.412 488.407 259.32 487.421 258.334 Z M 497.971 255.115 C 497.644 254.397 497.674 254.139 498.138 253.675 C 498.602 253.211 498.861 253.181 499.578 253.508 C 500.508 253.931 500.722 254.893 500.039 255.576 C 499.356 256.259 498.395 256.045 497.971 255.115 Z M 501.487 253.921 C 501.002 253.015 501.603 251.852 502.556 251.852 C 504.235 251.852 505.169 253.204 504.176 254.197 C 503.51 254.863 501.903 254.698 501.487 253.921 Z M 467.697 249.794 C 468.351 249.38 468.223 245.548 467.519 244.473 C 466.652 243.151 467.52 242.209 471.492 240.161 C 474.521 238.6 475.421 238.29 477.008 238.265 C 478.709 238.238 478.917 238.154 479.017 237.45 C 479.093 236.915 478.733 236.269 477.888 235.424 C 476.698 234.234 476.576 234.193 474.9 234.415 C 472.622 234.718 470.942 234.159 470.281 232.88 C 470 232.336 469.77 231.672 469.77 231.403 C 469.77 230.612 468.396 229.099 467.677 229.099 C 467.086 229.099 467.021 229.334 467.08 231.254 C 467.141 233.196 467.022 233.61 465.876 235.451 C 465.177 236.575 464.283 237.836 463.891 238.254 C 463.177 239.014 462.221 242.246 462.197 243.977 C 462.19 244.531 462.661 245.462 463.392 246.336 C 464.055 247.131 464.598 248.057 464.598 248.395 C 464.598 249.268 465.26 249.731 467.011 250.083 C 467.106 250.103 467.415 249.972 467.697 249.794 Z M 473.701 247.265 C 474.08 246.988 474.271 246.49 474.198 245.972 C 474.102 245.292 473.879 245.13 473.045 245.13 C 472.16 245.13 471.994 245.274 471.897 246.127 C 471.737 247.528 472.598 248.072 473.701 247.265 Z M 489.512 247.082 C 490.883 246.178 491.466 245.282 491.478 244.056 C 491.501 241.769 489.106 240.325 486.606 241.12 C 485.973 241.321 485.034 241.571 484.518 241.674 C 482.575 242.065 482.558 244.404 484.482 246.69 C 485.213 247.558 485.591 247.715 486.952 247.713 C 487.925 247.712 488.935 247.463 489.512 247.082 Z M 496.308 242.38 C 496.654 241.964 496.542 241.683 495.688 240.829 C 494.61 239.751 494.064 239.585 493.265 240.091 C 492.492 240.581 492.969 241.646 494.248 242.285 C 495.711 243.016 495.778 243.02 496.308 242.38 Z M 502.415 239.614 C 502.451 238.855 502.587 237.5 502.718 236.603 C 503.014 234.558 502.49 233.212 500.936 232.027 C 500.294 231.537 499.673 230.756 499.556 230.29 C 499.262 229.118 498.066 229.19 496.857 230.453 C 495.771 231.586 494.857 232.001 492.338 232.505 C 489.556 233.062 488.678 233.519 487.104 235.233 C 485.869 236.578 485.521 236.785 485.022 236.472 C 484.139 235.919 484.087 234.225 484.921 233.165 C 486.521 231.13 489.029 229.965 493.289 229.278 C 494.791 229.036 496.66 227.591 496.66 226.673 C 496.66 225.438 492.756 223.221 487.205 221.305 C 483.353 219.974 481.757 220.249 476.611 223.13 C 473.343 224.96 471.149 226.604 471.149 227.222 C 471.149 227.973 473.368 231.087 474.182 231.477 C 474.617 231.686 475.952 231.857 477.148 231.857 C 478.969 231.857 479.468 231.992 480.221 232.689 C 481.122 233.525 481.291 233.981 481.629 236.483 C 481.73 237.226 482.008 237.956 482.248 238.104 C 482.981 238.557 488.123 238.034 489.256 237.391 C 490.058 236.936 491.076 236.807 493.685 236.832 L 497.073 236.864 L 498.16 238.239 C 500.016 240.588 500.768 241.217 501.58 241.102 C 502.215 241.012 502.36 240.753 502.415 239.614 Z M 427.637 229.034 C 427.864 228.806 428.051 228.1 428.051 227.464 C 428.051 226.829 428.297 225.224 428.598 223.9 C 429.03 222.002 429.058 221.384 428.729 220.987 C 427.988 220.095 427.019 220.394 426.482 221.68 C 425.973 222.897 425.763 228.768 426.212 229.218 C 426.565 229.571 427.179 229.492 427.637 229.034 Z M 436.527 205.051 C 436.734 204.911 437.714 203.613 438.705 202.165 C 440.29 199.85 440.481 199.389 440.284 198.342 C 440.161 197.686 440.227 196.534 440.43 195.78 C 440.633 195.026 441.098 192.713 441.465 190.64 C 441.831 188.567 442.38 185.474 442.685 183.768 C 443.799 177.531 444.254 173.39 444.254 169.487 C 444.254 164.987 443.515 160.405 442.583 159.118 C 442.24 158.644 441.772 157.714 441.544 157.051 C 441.315 156.388 440.505 154.815 439.743 153.554 C 437.292 149.497 435.224 144.122 434.92 141.017 C 433.721 128.75 433.714 129.461 435.105 124.273 C 436.077 120.65 436.748 119.307 437.969 118.544 C 438.487 118.22 439.763 117.161 440.806 116.189 C 444.098 113.122 443.949 113.171 448.26 113.73 C 450.323 113.997 452.507 114.14 453.114 114.048 C 453.963 113.92 454.399 114.071 455.01 114.705 C 455.446 115.158 456.219 115.791 456.728 116.113 C 458.717 117.371 461.262 122.302 461.658 125.667 C 462.005 128.615 462.748 129.038 465.297 127.737 C 467.105 126.815 467.084 126.013 465.147 122.056 C 464.312 120.349 463.531 118.521 463.412 117.993 C 463.278 117.4 462.863 116.906 462.327 116.702 C 461.828 116.513 461.244 115.859 460.956 115.17 C 460.679 114.509 460.027 113.71 459.507 113.394 C 458.987 113.079 458.145 112.536 457.636 112.188 C 456.312 111.281 454.343 110.882 449.3 110.497 C 444.899 110.16 444.85 110.165 442.75 111.081 C 441.586 111.589 440.246 112.348 439.772 112.768 C 439.298 113.187 438.404 113.786 437.786 114.098 C 436.478 114.758 433.909 117.863 432.643 120.315 C 431.336 122.845 430.973 126.004 431.096 133.777 C 431.192 139.797 431.315 141.088 432.064 143.947 C 433.35 148.849 436.135 155.723 437.873 158.284 C 438.349 158.985 438.743 160.041 438.75 160.631 C 438.757 161.22 438.987 162.634 439.262 163.771 C 439.536 164.909 439.764 166.492 439.767 167.289 C 439.77 168.086 439.949 169.126 440.165 169.6 C 440.463 170.255 440.456 170.708 440.138 171.477 C 439.79 172.318 439.812 172.674 440.268 173.555 C 440.766 174.519 440.769 174.986 440.306 178.52 C 440.025 180.666 439.573 182.957 439.302 183.611 C 439.032 184.266 438.477 187.361 438.069 190.489 C 436.961 198.992 436.685 200.516 435.956 202.168 C 434.907 204.546 435.186 205.955 436.527 205.05 L 436.527 205.051 Z M 458.462 173.871 C 461.364 172.936 462.181 172.232 462.181 170.666 C 462.181 169.464 462.871 168.771 464.067 168.771 C 464.371 168.771 465.631 169.547 466.868 170.495 C 469.401 172.436 469.053 172.318 472.523 172.41 C 473.946 172.448 475.668 172.59 476.351 172.725 C 477.481 172.95 477.681 172.864 478.592 171.769 C 479.141 171.108 480.161 170.331 480.857 170.043 C 481.553 169.754 482.391 169.11 482.718 168.61 C 483.248 167.802 483.264 167.499 482.865 165.836 C 482.502 164.323 482.5 163.868 482.856 163.44 C 483.521 162.638 485.049 162.793 485.952 163.755 C 486.804 164.662 489.333 165.669 490.759 165.669 C 491.24 165.669 492.259 165.447 493.024 165.175 C 493.789 164.904 494.816 164.597 495.307 164.493 C 495.798 164.389 497.001 163.653 497.979 162.857 C 499.659 161.491 499.758 161.32 499.758 159.807 C 499.758 158.556 499.575 158.032 498.922 157.419 C 497.919 156.476 497.345 156.726 497.345 158.104 C 497.345 159.059 497.263 159.118 495.958 159.118 C 494.791 159.118 494.517 159.257 494.239 159.989 C 494.057 160.468 493.673 160.95 493.385 161.06 C 492.509 161.397 491.199 160.883 490.953 160.107 C 490.769 159.527 491.034 159.098 492.223 158.054 C 493.492 156.939 493.973 156.732 495.323 156.72 C 496.681 156.707 496.951 156.589 497.128 155.929 C 497.77 153.532 496.897 152.554 493.849 152.257 C 491.485 152.027 490.897 151.515 491.273 150.013 C 491.563 148.859 493.235 148.091 494.902 148.346 C 496.349 148.567 497 147.839 497 146 C 497 145.219 497.33 144.249 497.862 143.465 C 498.902 141.932 498.93 141.36 498.038 139.898 C 497.042 138.263 496.009 138.398 494.478 140.363 C 493.799 141.235 493.196 142.071 493.139 142.22 C 493.082 142.37 492.417 142.782 491.661 143.136 C 490.905 143.489 490.235 144.049 490.171 144.381 C 490.073 144.89 490.323 144.984 491.783 144.984 C 494.959 144.984 494.332 146.606 491.024 146.947 C 488.711 147.186 488.22 147.615 488.728 148.953 C 489.147 150.053 488.6 151.149 487.163 152.091 C 486.433 152.569 486.332 152.835 486.513 153.8 C 486.714 154.872 486.655 154.963 485.572 155.25 C 484.498 155.536 484.424 155.646 484.519 156.827 C 484.638 158.308 483.741 160.055 482.705 160.36 C 482.319 160.473 481.436 160.95 480.742 161.419 C 479.532 162.237 479.437 162.249 478.405 161.715 C 477.073 161.026 476.638 161.264 476.748 162.623 C 476.87 164.147 475.893 164.71 474.882 163.698 C 474.198 163.015 474.165 162.819 474.532 161.595 C 475.099 159.701 475.05 159.463 474.087 159.463 C 472.945 159.463 472.381 160.578 472.364 162.872 C 472.354 164.285 472.201 164.822 471.726 165.113 C 471.216 165.425 470.978 165.346 470.433 164.682 C 469.418 163.446 469.566 161.734 470.799 160.443 C 472.096 159.086 472.093 158.708 470.773 157.598 C 469.024 156.126 468.806 156.347 468.84 159.549 C 468.876 162.919 468.169 164.75 466.901 164.57 C 466.216 164.472 466.156 164.293 466.256 162.652 C 466.353 161.068 466.286 160.842 465.715 160.842 C 465.311 160.842 464.876 161.267 464.57 161.963 C 464.113 163.001 463.955 163.084 462.418 163.093 C 460.62 163.103 460.242 162.853 460.059 161.532 C 459.97 160.893 459.761 160.698 459.25 160.777 C 455.279 161.394 453.903 161.205 451.785 159.748 C 450.576 158.916 449.526 158.945 449.25 159.817 C 448.931 160.822 450.285 163.405 451.783 164.65 C 452.961 165.63 453.204 165.693 455.458 165.598 C 457.704 165.503 457.879 165.548 457.977 166.24 C 458.036 166.649 457.648 167.598 457.115 168.35 C 456.296 169.507 455.751 169.845 453.562 170.556 C 451.614 171.189 450.955 171.561 450.888 172.066 C 450.747 173.136 451.299 173.653 453.092 174.135 C 455.402 174.756 455.771 174.738 458.462 173.871 Z M 469.679 169.778 C 468.175 168.902 469.608 166.57 471.145 167.392 C 471.524 167.595 471.834 167.821 471.834 167.893 C 471.834 167.966 471.921 168.251 472.026 168.526 C 472.236 169.074 471.339 170.157 470.689 170.14 C 470.466 170.134 470.011 169.971 469.679 169.778 Z M 474.465 169.421 C 473.67 168.286 474.234 167.22 475.628 167.22 C 477.073 167.22 477.644 168.024 477.08 169.262 C 476.574 170.374 475.192 170.458 474.465 169.421 Z M 478.072 167.604 C 477.389 166.781 478.199 165.6 479.356 165.734 C 480.13 165.823 480.28 166.009 480.28 166.875 C 480.28 167.731 480.127 167.927 479.389 168.013 C 478.899 168.07 478.306 167.886 478.072 167.604 Z M 488.121 163.202 C 487.441 162.522 487.601 161.262 488.398 161.009 C 489.413 160.687 490.865 161.724 490.73 162.674 C 490.651 163.229 490.35 163.454 489.586 163.529 C 489.017 163.585 488.357 163.438 488.121 163.202 Z M 436.841 166.698 C 436.841 166.087 436.631 165.811 436.11 165.737 C 435.233 165.612 434.753 166.573 435.338 167.278 C 435.957 168.023 436.841 167.682 436.841 166.698 Z M 448.05 157.183 C 448.148 156.213 448.441 155.163 448.701 154.85 C 449.051 154.428 449.106 153.809 448.915 152.476 C 448.281 148.06 448.222 147.123 448.478 145.501 C 449.332 140.098 450.655 136.551 452.836 133.817 C 454.074 132.266 454.011 132.489 453.522 131.416 C 453.22 130.753 453.269 130.18 453.754 128.728 C 454.093 127.713 454.49 125.797 454.636 124.47 C 454.783 123.143 455.006 121.551 455.133 120.933 C 455.278 120.227 455.206 119.619 454.938 119.295 C 454.345 118.582 452.625 118.639 452.239 119.385 C 451.843 120.151 450.893 124.578 450.593 127.055 C 450.467 128.098 450.087 129.502 449.75 130.175 C 449.412 130.849 448.977 132.167 448.783 133.106 C 448.588 134.044 448.116 136.053 447.732 137.57 C 447.348 139.087 447.029 141.133 447.023 142.116 C 447.016 143.1 446.846 144.339 446.644 144.87 C 446.442 145.402 446.187 147.157 446.078 148.771 C 445.925 151.041 445.682 152.049 445.006 153.219 L 444.132 154.731 L 444.856 156.149 C 445.254 156.929 445.682 157.925 445.808 158.362 C 445.984 158.979 446.243 159.134 446.954 159.052 C 447.788 158.956 447.889 158.783 448.05 157.183 Z M 459.766 158.285 C 459.766 158.016 459.195 157.512 458.496 157.164 C 456.674 156.259 455.846 155.019 456.287 153.859 C 456.478 153.357 457.103 152.703 457.677 152.406 C 458.251 152.11 458.942 151.443 459.213 150.925 C 459.483 150.407 460.194 149.518 460.791 148.95 C 461.388 148.382 462.657 146.701 463.61 145.216 C 465.009 143.035 465.404 142.076 465.665 140.237 C 466.034 137.627 467.184 135.798 468.659 135.476 C 469.172 135.364 469.771 135.218 469.99 135.152 C 470.209 135.086 471.236 135.229 472.273 135.47 C 474.169 135.911 475.649 136.775 482.824 141.629 C 483.994 142.42 486.087 142.302 486.251 141.436 C 486.428 140.506 484.304 137.445 482.841 136.521 C 482.03 136.01 481.407 135.273 481.165 134.541 C 480.661 133.012 479.391 131.877 476.722 130.569 C 474.597 129.527 474.46 129.506 471.048 129.714 C 468.126 129.892 467.246 130.087 465.692 130.905 C 464.67 131.442 463.612 131.882 463.34 131.882 C 463.069 131.882 462.081 132.27 461.146 132.744 C 460.21 133.218 459.194 133.606 458.888 133.606 C 458.006 133.606 455.375 135.955 454.976 137.099 C 454.777 137.671 454.223 138.603 453.746 139.171 C 452.037 141.201 451.009 147.407 451.949 150.015 C 452.229 150.791 452.569 152.652 452.705 154.152 C 453.056 158.029 453.786 158.714 457.612 158.752 C 459.252 158.769 459.767 158.657 459.767 158.285 L 459.766 158.285 Z M 464.708 157.247 C 464.812 156.977 464.665 156.564 464.383 156.329 C 463.969 155.986 463.763 156.008 463.328 156.443 C 463.031 156.74 462.893 157.154 463.021 157.362 C 463.356 157.904 464.485 157.828 464.708 157.247 Z M 478.502 156.652 C 480.655 155.181 480.898 153.947 479.035 153.947 C 477.893 153.947 476.564 152.8 476.727 151.954 C 476.789 151.632 477.397 151.225 478.119 151.022 C 479.703 150.578 480.55 149.78 480.255 149.01 C 479.994 148.33 478.506 148.281 476.592 148.889 C 475.113 149.358 471.488 152.685 471.488 153.573 C 471.488 154.137 473.476 156.006 475.085 156.952 C 476.153 157.58 477.29 157.48 478.502 156.652 Z M 467.692 152.302 C 469.485 151.4 469.599 151.265 469.793 149.808 C 469.905 148.961 470.467 147.415 471.041 146.372 C 472.35 143.994 473.336 143.739 475.129 145.313 C 476.522 146.537 476.951 146.58 479.8 145.788 C 482.773 144.961 482.921 143.778 480.161 142.903 C 479.466 142.683 477.327 141.51 475.408 140.299 C 470.519 137.212 469.254 137.323 468.69 140.887 C 468.296 143.379 464.603 149.434 462.628 150.826 C 461.15 151.868 460.75 152.706 461.572 153.038 C 462.896 153.572 465.879 153.213 467.692 152.302 Z M 442.544 150.129 C 442.757 149.73 442.857 149.118 442.765 148.767 C 442.674 148.417 442.877 146.765 443.217 145.097 C 443.557 143.428 444.161 140.46 444.559 138.503 C 444.957 136.545 445.283 134.561 445.283 134.092 C 445.283 131.296 447.918 122.004 449.515 119.171 C 450.519 117.389 450.536 117.291 449.926 116.844 C 448.967 116.143 446.899 116.282 444.862 117.184 C 442.746 118.122 442.284 118.592 442.125 119.971 C 442.036 120.74 441.763 121.058 440.974 121.31 C 439.361 121.827 439.161 122.11 438.158 125.289 C 437.292 128.033 437.219 128.701 437.25 133.615 C 437.272 136.964 437.479 139.86 437.806 141.372 C 438.371 143.989 440.322 149.726 440.883 150.423 C 441.403 151.068 442.108 150.944 442.544 150.129 Z M 487.155 147.192 C 487.462 147.074 487.958 146.504 488.258 145.924 C 488.765 144.944 488.759 144.839 488.177 144.413 C 487.381 143.831 486.35 144.124 485.359 145.214 C 484.081 146.62 485.26 147.919 487.155 147.192 Z M 458.607 130.141 C 459.987 129.288 460.126 128.175 459.068 126.44 C 458.056 124.779 457.35 125.112 456.545 127.629 C 455.528 130.808 456.201 131.628 458.607 130.141 Z M 457.949 109.205 C 458.347 108.952 459.699 104.395 460.631 100.163 C 460.862 99.114 461.518 96.942 462.087 95.337 C 462.657 93.732 463.442 91.488 463.832 90.35 C 464.222 89.213 465.491 85.8 466.651 82.766 C 469.702 74.792 469.756 74.626 469.755 73.113 C 469.755 71.28 469.568 71.051 467.093 69.852 C 465.374 69.019 464.749 68.473 463.778 66.954 C 462.339 64.705 461.125 64.187 457.749 64.377 C 455.795 64.488 455.202 64.684 453.816 65.68 C 451.372 67.435 451.701 68.368 454.371 67.252 C 457.044 66.135 458.957 66.736 461.19 69.392 C 462.019 70.379 463.513 72.133 464.508 73.288 C 466.717 75.852 466.911 77.235 465.331 79.154 C 463.871 80.928 460.457 89.642 460.457 91.595 C 460.457 91.995 459.926 94.05 459.277 96.162 C 458.628 98.275 457.76 101.399 457.348 103.106 C 456.937 104.812 456.382 106.552 456.116 106.972 C 455.515 107.918 455.489 109.024 456.062 109.255 C 456.722 109.522 457.482 109.501 457.949 109.205 Z M 497.25 95.318 C 502.137 93.179 502.447 92.888 503.168 89.758 C 503.65 87.666 503.264 86.65 501.582 85.582 C 500.864 85.126 499.578 84.112 498.725 83.329 C 497.161 81.893 496.525 81.624 496.145 82.239 C 495.845 82.725 496.72 84.228 498.524 86.328 C 499.411 87.36 500.104 88.514 500.104 88.96 C 500.104 90.172 497.776 92.075 495.676 92.579 C 494.185 92.936 493.657 92.919 492.336 92.469 C 490.558 91.863 489.761 92.021 489.761 92.978 C 489.761 93.6 492.011 94.87 494.588 95.702 C 495.062 95.855 495.484 95.993 495.527 96.009 C 495.569 96.026 496.345 95.715 497.25 95.318 Z M 516.754 94.891 C 518.513 93.765 518.556 93.696 518.996 91.357 C 519.243 90.045 519.673 88.623 519.952 88.196 C 520.641 87.144 522.289 87.171 523.578 88.256 C 524.495 89.028 524.776 89.077 527.248 88.905 C 530.163 88.703 531.29 88.205 531.909 86.847 C 532.508 85.531 531.625 85.028 529.116 85.255 C 527.395 85.411 526.871 85.299 525.084 84.393 C 521.303 82.477 520.937 81.642 520.488 73.895 L 520.173 68.472 L 518.154 65.41 C 516.25 62.524 515.996 62.282 513.721 61.204 C 509.704 59.3 505.672 59.265 504.632 61.123 C 504.356 61.618 503.893 61.705 502.005 61.62 C 500.745 61.564 499.53 61.668 499.305 61.852 C 499.081 62.036 498.273 62.353 497.511 62.557 C 495.951 62.974 495.147 64.032 494.739 66.207 C 494.598 66.959 494.201 68.21 493.858 68.987 C 493.345 70.147 493.265 70.985 493.413 73.649 C 493.633 77.596 494.019 78.522 495.575 78.839 C 496.213 78.969 497.997 79.929 499.539 80.973 C 501.082 82.016 502.732 83.059 503.206 83.29 C 503.68 83.522 504.584 84.196 505.215 84.79 L 506.362 85.869 L 507.149 84.89 C 508.276 83.487 509.479 83.718 509.899 85.421 C 510.297 87.029 509.702 87.909 508.397 87.646 C 506.107 87.186 506.133 87.177 506.188 88.369 C 506.235 89.405 507.838 92.348 508.976 93.485 C 509.243 93.752 509.846 93.971 510.316 93.971 C 510.966 93.971 511.291 93.683 511.672 92.771 C 512.481 90.835 514.611 89.82 516.35 90.541 C 517.172 90.881 517.357 91.147 517.273 91.865 C 517.183 92.645 516.967 92.791 515.647 92.967 C 512.918 93.331 511.576 96.039 514.125 96.039 C 514.585 96.039 515.768 95.522 516.754 94.891 Z M 511.574 84.245 C 510.265 83.613 510.215 82.589 511.442 81.494 C 512.038 80.961 512.911 80.525 513.382 80.525 C 514.38 80.525 514.447 80.076 513.713 78.319 C 512.845 76.24 514.303 74.779 515.776 76.252 C 516.686 77.162 517.686 79.392 517.686 80.511 C 517.686 81.479 517.593 81.559 516.479 81.559 C 515.328 81.559 515.273 81.616 515.273 82.775 C 515.273 83.762 515.107 84.053 514.388 84.326 C 513.291 84.743 512.563 84.722 511.574 84.245 Z M 514.256 73.822 C 513.682 73.211 513.524 72.743 513.68 72.121 C 514.097 70.458 516.337 70.69 517.013 72.467 C 517.764 74.443 515.764 75.426 514.256 73.822 Z M 496.914 71.879 C 496.509 71.643 496.311 71.102 496.311 70.228 C 496.311 69.093 496.453 68.866 497.431 68.435 C 498.409 68.005 498.565 67.756 498.658 66.478 C 498.788 64.679 499.608 64.082 501.193 64.635 C 501.995 64.914 502.46 64.881 503.22 64.487 C 505.836 63.135 506.728 64.795 504.66 67.166 C 504.37 67.498 503.723 67.77 503.223 67.77 C 502.208 67.77 500.162 69.704 499.485 71.303 C 499.059 72.311 498.045 72.538 496.914 71.879 Z M 532.165 81.56 C 532.165 81.177 531.936 80.87 531.648 80.87 C 531.123 80.87 530.941 81.599 531.361 82.019 C 531.798 82.456 532.165 82.247 532.165 81.56 Z M 473.872 69.703 C 474.092 69.438 474.744 68.236 475.322 67.031 C 475.9 65.826 477.523 63.118 478.93 61.013 C 480.336 58.908 481.487 56.93 481.487 56.617 C 481.487 55.25 479.108 56.384 478.169 58.2 C 477.864 58.791 476.987 60.061 476.221 61.023 C 474.725 62.901 472.179 67.96 472.179 69.056 C 472.179 70.23 473.132 70.594 473.872 69.703 Z M 468.675 65.903 C 469.602 65.424 469.838 65.079 470.984 62.521 C 471.79 60.723 474.085 58.214 475.657 57.412 C 476.386 57.04 477.148 56.427 477.35 56.049 C 477.813 55.185 479.893 54.108 481.676 53.81 C 482.425 53.685 484.085 53.34 485.365 53.045 C 487.74 52.497 490.053 52.547 494.486 53.243 C 497.23 53.673 500.167 55.381 500.935 56.992 C 501.397 57.96 501.656 58.143 502.436 58.053 C 503.918 57.883 503.928 56.302 502.458 54.767 C 500.397 52.616 498.535 51.564 495.88 51.049 C 494.506 50.782 492.623 50.302 491.697 49.983 C 490.289 49.497 489.733 49.466 488.309 49.795 C 487.372 50.011 485.95 50.188 485.148 50.188 C 484.134 50.188 483.334 50.45 482.522 51.05 C 481.862 51.536 480.884 51.912 480.275 51.912 C 479.135 51.912 476.269 53.295 473.365 55.246 C 470.646 57.073 465.629 63.491 465.629 65.143 C 465.629 65.694 466.523 66.363 467.284 66.381 C 467.53 66.387 468.156 66.172 468.675 65.903 Z M 527.734 47.86 L 528.546 46.223 L 530.959 46.337 C 533.146 46.44 533.446 46.372 534.16 45.612 C 534.779 44.954 534.927 44.448 534.849 43.257 C 534.758 41.84 534.811 41.734 535.676 41.634 C 536.185 41.575 537.07 41.769 537.642 42.065 C 538.892 42.712 540.981 42.755 542.16 42.158 C 544.057 41.198 542.983 39.281 540.748 39.638 C 538.925 39.93 537.682 39.391 537.682 38.309 C 537.682 37.054 538.925 36.861 541.067 37.783 C 543.661 38.899 544.49 37.904 542.508 36.053 C 541.677 35.276 541.474 34.803 541.474 33.639 C 541.474 30.799 539.394 28.275 535.377 26.241 C 533.506 25.294 533.403 25.28 531.003 25.683 C 529.652 25.91 527.656 26.32 526.569 26.593 C 525.481 26.866 524.155 27.089 523.621 27.089 C 522.546 27.089 518.651 29.722 518.042 30.861 C 517.84 31.238 517.646 32.677 517.611 34.058 C 517.526 37.425 518.182 38.606 522.709 43.23 C 526.238 46.834 526.311 46.94 526.107 48.205 C 525.803 50.098 526.72 49.904 527.733 47.86 L 527.734 47.86 Z M 527.227 44.165 C 526.883 43.821 526.65 43.04 526.65 42.234 C 526.65 40.98 526.578 40.879 525.684 40.879 C 524.481 40.879 523.892 40.314 523.892 39.162 C 523.892 38.49 523.639 38.177 522.857 37.882 C 521.923 37.529 521.823 37.345 521.823 35.964 C 521.823 34.874 521.626 34.257 521.134 33.812 C 520.275 33.035 520.254 32.195 521.075 31.452 C 522.413 30.241 523.784 31.022 523.351 32.75 C 523.203 33.338 523.382 33.678 524.079 34.135 C 524.9 34.673 524.979 34.891 524.788 36.086 C 524.578 37.399 524.598 37.432 525.607 37.432 C 526.538 37.432 526.663 37.563 526.85 38.738 C 527.051 39.989 527.109 40.038 528.234 39.907 C 529.346 39.777 529.408 39.826 529.408 40.835 C 529.408 41.899 529.409 41.9 530.959 41.688 C 532.466 41.481 532.511 41.502 532.511 42.401 C 532.511 43.143 532.257 43.433 531.237 43.86 C 529.182 44.718 527.879 44.817 527.227 44.165 Z M 536.521 32.91 C 535.698 31.735 536.411 30.552 537.948 30.542 C 538.44 30.539 538.869 30.84 539.103 31.355 C 539.935 33.18 537.666 34.546 536.521 32.91 Z M 522.685 47.941 C 522.685 47.493 522.416 47.218 521.909 47.146 C 521.338 47.065 521.133 47.209 521.133 47.692 C 521.133 48.053 521.242 48.457 521.375 48.59 C 521.832 49.047 522.685 48.625 522.685 47.941 Z M 489.293 47.043 C 489.526 46.85 489.818 46.198 489.942 45.595 C 490.067 44.992 490.989 43.024 491.991 41.223 C 492.994 39.422 494.628 36.474 495.623 34.673 C 496.618 32.872 497.933 30.7 498.544 29.846 C 499.156 28.993 500.044 27.442 500.518 26.399 C 500.992 25.356 501.83 24.081 502.379 23.566 C 502.929 23.051 503.999 22.026 504.757 21.289 C 506.558 19.539 507.331 19.161 509.13 19.152 C 510.074 19.147 510.933 18.897 511.48 18.47 C 512.171 17.929 512.894 17.794 515.139 17.788 C 518.536 17.779 519.169 18.174 521 21.449 C 522.252 23.687 523.126 24.376 524.32 24.064 C 526.753 23.427 524.672 19.321 520.546 16.616 C 518.413 15.217 517.954 15.059 515.444 14.859 C 513.411 14.697 512.233 14.779 510.963 15.172 C 510.015 15.465 508.833 15.706 508.338 15.708 C 507.038 15.713 501.685 19.39 499.219 21.97 C 497.665 23.597 496.573 25.253 494.959 28.427 C 493.766 30.776 492.128 33.723 491.321 34.978 C 490.513 36.232 489.733 37.646 489.589 38.12 C 488.924 40.298 486.778 43.931 485.395 45.221 C 484.289 46.252 483.944 46.798 484.116 47.245 C 484.321 47.78 484.636 47.828 486.61 47.626 C 487.852 47.499 489.059 47.237 489.293 47.043 Z M 560.739 34.403 C 560.952 34.004 560.934 33.288 560.687 32.361 C 560.182 30.469 560.68 29.847 562.697 29.847 C 564.42 29.847 564.743 29.495 564.743 27.621 C 564.743 26.329 564.814 26.237 566.101 25.872 C 568.687 25.139 568.683 23.08 566.096 23.169 C 565.028 23.206 564.554 23.471 563.556 24.59 C 562.097 26.226 560.391 27.434 559.539 27.434 C 558.556 27.434 554.427 24.82 553.198 23.42 C 551.526 21.517 550.993 20.048 551.55 18.885 C 551.886 18.184 552.249 17.953 553.011 17.953 C 553.951 17.953 554.082 18.118 554.796 20.194 C 555.571 22.444 557.127 24.331 558.21 24.331 C 558.998 24.331 561.897 22.78 562.634 21.964 C 563.241 21.292 563.247 21.191 562.72 20.387 C 562.411 19.915 562.158 19.291 562.158 18.999 C 562.158 18.157 563.043 18.386 563.478 19.342 C 564.273 21.085 565.95 20.683 565.95 18.75 C 565.95 16.715 564.573 15.67 563.537 16.919 C 562.987 17.581 561.849 17.587 561.597 16.929 C 561.49 16.65 561.728 16.009 562.125 15.503 C 563.615 13.609 562.954 13.129 558.484 12.853 C 556.076 12.705 555.177 12.773 554.692 13.14 C 553.809 13.809 552.368 13.761 551.748 13.04 C 551.462 12.709 550.888 11.816 550.472 11.056 C 549.7 9.649 546.639 7.365 544.692 6.744 C 542.473 6.037 538.773 5.368 537.085 5.369 C 535.544 5.37 535.202 5.494 534.719 6.232 C 534.214 7.002 533.921 7.093 531.947 7.093 C 529.92 7.093 529.408 7.265 525.695 9.186 C 523.47 10.337 521.357 11.565 520.999 11.915 C 520.202 12.695 520.463 13.537 521.641 13.985 C 522.722 14.396 523.695 14.049 525.685 12.542 C 529.023 10.017 534.308 8.302 538.715 8.314 C 542.671 8.325 544.319 8.868 546.388 10.841 C 548.265 12.632 548.537 13.405 549.017 18.298 C 549.443 22.645 551.414 25.951 554.364 27.264 C 555.332 27.696 556.461 28.414 556.871 28.862 C 557.555 29.608 558.357 31.701 558.865 34.07 C 559.102 35.174 560.22 35.373 560.739 34.403 Z M 508.032 23.259 C 508.032 22.565 507.189 22.363 506.815 22.968 C 506.692 23.166 506.677 23.552 506.781 23.824 C 507.044 24.509 508.032 24.063 508.032 23.259 Z M 482.272 442.64 C 482.035 442.545 481.841 442.091 481.841 441.633 C 481.841 440.98 482.022 440.8 482.679 440.8 C 483.214 440.8 483.597 441.049 483.736 441.486 C 484.1 442.634 483.476 443.126 482.272 442.64 Z" transform="matrix(-0.087155, -0.996195, 0.996195, -0.087155, 274.176723, 738.52349)"/>
</svg>